<?xml version="1.0" encoding="utf-8"?>
<!-- Generator: Adobe Illustrator 18.0.0, SVG Export Plug-In . SVG Version: 6.00 Build 0)  -->
<!DOCTYPE svg PUBLIC "-//W3C//DTD SVG 1.1//EN" "http://www.w3.org/Graphics/SVG/1.1/DTD/svg11.dtd">
<svg version="1.1" id="Layer_1" xmlns="http://www.w3.org/2000/svg" xmlns:xlink="http://www.w3.org/1999/xlink" x="0px" y="0px"
	 width="152px" height="52.3px" viewBox="0 0 152 52.3" style="enable-background:new 0 0 152 52.3;" xml:space="preserve">
<style type="text/css">
	.st0{fill:#2B388F;}
</style>
<g>
	<path class="st0" d="M0,18c0-2.5,0.4-4.8,1.1-7C1.8,8.9,2.8,7,4.2,5.4c1.4-1.6,3-2.9,5-3.8c2-0.9,4.2-1.4,6.7-1.4
		c2,0,3.7,0.3,5.1,0.8c1.4,0.5,2.6,1.2,3.6,2c1,0.8,1.8,1.6,2.4,2.6c0.6,0.9,1.1,1.8,1.4,2.6c0.3,0.8,0.6,1.5,0.7,2.1
		c0.1,0.6,0.2,0.9,0.2,1h-2.1c-0.2-1.4-0.7-2.7-1.4-3.8c-0.7-1.1-1.5-2.1-2.6-2.9c-1-0.8-2.2-1.4-3.4-1.8c-1.3-0.4-2.6-0.6-4-0.6
		c-2.2,0-4.1,0.4-5.9,1.3c-1.7,0.9-3.2,2-4.4,3.5C4.5,8.2,3.6,9.9,3,11.8c-0.6,1.9-0.9,4-0.9,6.2c0,2.2,0.3,4.3,0.9,6.2
		c0.6,1.9,1.5,3.6,2.7,5.1c1.2,1.4,2.6,2.6,4.4,3.5c1.7,0.9,3.7,1.3,5.9,1.3c1.6,0,3.1-0.3,4.6-1c1.4-0.7,2.7-1.6,3.7-2.7
		c1.1-1.1,1.9-2.4,2.6-3.9c0.6-1.5,1-3,1.1-4.6h2.1c-0.2,2-0.7,3.9-1.5,5.6c-0.8,1.7-1.8,3.2-3,4.5c-1.2,1.3-2.7,2.2-4.3,2.9
		c-1.6,0.7-3.4,1.1-5.2,1.1c-2.5,0-4.7-0.5-6.7-1.4c-2-0.9-3.7-2.2-5-3.8c-1.4-1.6-2.4-3.5-3.1-5.7C0.4,22.8,0,20.5,0,18z"/>
	<path class="st0" d="M36.1,1v34.1h-1.8V1H36.1z"/>
	<path class="st0" d="M42.2,5.9V1H44v4.9H42.2z M42.2,35.1V10.5H44v24.5H42.2z"/>
	<path class="st0" d="M49.6,10.5h1.8v5.3h0.1c0.3-0.9,0.8-1.7,1.3-2.5c0.6-0.7,1.2-1.3,2-1.8c0.8-0.5,1.6-0.9,2.5-1.1
		c0.9-0.3,1.8-0.4,2.8-0.4c1.4,0,2.6,0.2,3.6,0.5c1,0.4,1.8,0.8,2.4,1.4c0.6,0.6,1.1,1.2,1.5,1.9c0.4,0.7,0.6,1.4,0.8,2.2
		c0.2,0.7,0.2,1.4,0.3,2.1c0,0.7,0,1.3,0,1.8v15.2h-1.8V19.6c0-0.6,0-1.4-0.1-2.3c-0.1-0.9-0.4-1.8-0.8-2.6
		c-0.5-0.8-1.1-1.6-2.1-2.2c-0.9-0.6-2.2-0.9-3.8-0.9c-1.4,0-2.6,0.3-3.7,0.8c-1.1,0.5-2,1.2-2.7,2.1c-0.7,0.9-1.3,2-1.7,3.2
		c-0.4,1.3-0.6,2.6-0.6,4.1v13.3h-1.8V10.5z"/>
	<path class="st0" d="M73,18.2c0-2.4,0.4-4.7,1.1-6.9c0.7-2.2,1.7-4.1,3.1-5.8c1.3-1.7,3-3,4.9-3.9c2-1,4.2-1.5,6.7-1.5
		c1.7,0,3.4,0.3,4.9,0.8c1.6,0.5,3,1.3,4.2,2.2c1.2,1,2.3,2.2,3.1,3.6c0.8,1.4,1.4,3,1.7,4.8h-2c-0.8-3-2.2-5.3-4.2-7
		c-2-1.7-4.6-2.5-7.7-2.5c-2.2,0-4.2,0.4-5.9,1.3c-1.7,0.9-3.2,2.1-4.3,3.6c-1.2,1.5-2,3.2-2.6,5.2c-0.6,2-0.9,4-0.9,6.1
		c0,2.2,0.3,4.2,0.9,6.1c0.6,1.9,1.4,3.6,2.6,5c1.1,1.4,2.6,2.6,4.3,3.4c1.7,0.8,3.7,1.3,6,1.3c2,0,3.8-0.3,5.4-1
		c1.6-0.7,2.9-1.6,4-2.8c1.1-1.2,1.9-2.7,2.5-4.4c0.6-1.7,0.8-3.6,0.7-5.7H89.2v-1.8h14.1v16.7h-1.8v-7.3h-0.1
		c-0.4,1.2-1,2.4-1.8,3.4c-0.8,1-1.8,1.8-2.9,2.5c-1.1,0.7-2.3,1.2-3.7,1.6c-1.4,0.4-2.8,0.6-4.2,0.6c-2.5,0-4.8-0.5-6.7-1.4
		c-2-0.9-3.6-2.2-4.9-3.8c-1.3-1.6-2.4-3.5-3-5.6C73.4,23,73,20.7,73,18.2z"/>
	<path class="st0" d="M109.3,23v0.3c0,1.4,0.2,2.8,0.6,4.1c0.4,1.3,0.9,2.5,1.7,3.4c0.7,1,1.7,1.8,2.8,2.3c1.1,0.6,2.4,0.9,3.9,0.9
		c2.4,0,4.3-0.6,5.7-1.9c1.4-1.3,2.4-3.1,2.9-5.4h1.8c-0.5,2.9-1.7,5.1-3.4,6.6c-1.8,1.5-4.1,2.3-7,2.3c-1.8,0-3.3-0.3-4.7-1
		c-1.3-0.7-2.4-1.5-3.3-2.7c-0.9-1.1-1.6-2.5-2-4c-0.4-1.5-0.7-3.2-0.7-5c0-1.7,0.2-3.4,0.7-4.9c0.5-1.6,1.1-3,2-4.2
		c0.9-1.2,2-2.1,3.4-2.9c1.4-0.7,3-1.1,4.8-1.1c1.7,0,3.2,0.3,4.5,1c1.3,0.6,2.4,1.5,3.3,2.6c0.9,1.1,1.5,2.4,2,3.8
		c0.5,1.4,0.7,3,0.7,4.7c0,0.2,0,0.3,0,0.5c0,0.2,0,0.4,0,0.5H109.3z M127,21.5c-0.1-1.3-0.3-2.6-0.7-3.8c-0.4-1.2-0.9-2.2-1.7-3.2
		c-0.7-0.9-1.6-1.6-2.7-2.2c-1-0.5-2.2-0.8-3.6-0.8c-1.4,0-2.7,0.3-3.8,0.8c-1.1,0.6-2,1.3-2.8,2.2c-0.8,0.9-1.3,2-1.7,3.2
		c-0.4,1.2-0.7,2.5-0.8,3.7H127z"/>
	<path class="st0" d="M132.9,10.5h1.8v5.3h0.1c0.3-0.9,0.8-1.7,1.3-2.5c0.6-0.7,1.2-1.3,2-1.8c0.8-0.5,1.6-0.9,2.5-1.1
		c0.9-0.3,1.8-0.4,2.8-0.4c1.4,0,2.6,0.2,3.6,0.5c1,0.4,1.8,0.8,2.4,1.4c0.6,0.6,1.1,1.2,1.5,1.9c0.4,0.7,0.6,1.4,0.8,2.2
		c0.2,0.7,0.2,1.4,0.3,2.1c0,0.7,0,1.3,0,1.8v15.2h-1.8V19.6c0-0.6,0-1.4-0.1-2.3c-0.1-0.9-0.4-1.8-0.8-2.6
		c-0.5-0.8-1.1-1.6-2.1-2.2c-0.9-0.6-2.2-0.9-3.8-0.9c-1.4,0-2.6,0.3-3.7,0.8c-1.1,0.5-2,1.2-2.7,2.1c-0.7,0.9-1.3,2-1.7,3.2
		c-0.4,1.3-0.6,2.6-0.6,4.1v13.3h-1.8V10.5z"/>
</g>
<g>
	<path class="st0" d="M8.5,44.3c-0.2-0.3-0.4-0.5-0.7-0.7c-0.3-0.2-0.6-0.3-0.9-0.5c-0.3-0.1-0.6-0.2-1-0.2c-0.6,0-1.2,0.1-1.6,0.4
		s-0.8,0.6-1.1,1c-0.3,0.4-0.5,0.9-0.6,1.4c-0.1,0.5-0.2,1-0.2,1.6c0,0.5,0.1,1,0.2,1.5c0.1,0.5,0.4,1,0.6,1.4
		c0.3,0.4,0.7,0.7,1.1,1s1,0.4,1.6,0.4c0.4,0,0.8-0.1,1.2-0.2c0.4-0.2,0.7-0.4,0.9-0.7c0.3-0.3,0.5-0.6,0.6-1
		C8.9,49.1,9,48.7,9,48.3h0.9c-0.1,0.6-0.2,1.1-0.4,1.6c-0.2,0.5-0.5,0.9-0.8,1.2c-0.3,0.3-0.7,0.6-1.2,0.8c-0.5,0.2-1,0.3-1.5,0.3
		c-0.7,0-1.4-0.1-2-0.4c-0.6-0.3-1-0.6-1.4-1.1c-0.4-0.5-0.7-1-0.8-1.6c-0.2-0.6-0.3-1.2-0.3-1.9c0-0.7,0.1-1.3,0.3-1.9
		c0.2-0.6,0.5-1.1,0.8-1.6C3,43.2,3.4,42.8,4,42.5c0.6-0.3,1.2-0.4,2-0.4c0.5,0,0.9,0.1,1.3,0.2c0.4,0.1,0.8,0.3,1.2,0.6
		c0.4,0.3,0.6,0.6,0.9,1c0.2,0.4,0.4,0.8,0.4,1.3H8.9C8.8,44.9,8.7,44.5,8.5,44.3z"/>
	<path class="st0" d="M12,42.3V52h-0.8v-9.7H12z"/>
	<path class="st0" d="M14.5,42.3v1.4h-0.8v-1.4H14.5z M14.5,45v7h-0.8v-7H14.5z"/>
	<path class="st0" d="M16.9,45v1.2h0c0.2-0.4,0.4-0.8,0.9-1c0.4-0.3,0.9-0.4,1.3-0.4c0.5,0,0.9,0.1,1.2,0.2c0.3,0.1,0.6,0.3,0.8,0.5
		c0.2,0.2,0.3,0.5,0.4,0.8c0.1,0.3,0.1,0.7,0.1,1.1V52h-0.8v-4.4c0-0.3,0-0.6-0.1-0.8c-0.1-0.3-0.1-0.5-0.3-0.7
		c-0.1-0.2-0.3-0.3-0.5-0.4c-0.2-0.1-0.5-0.2-0.8-0.2c-0.3,0-0.6,0.1-0.9,0.2c-0.3,0.1-0.5,0.3-0.7,0.5c-0.2,0.2-0.3,0.5-0.4,0.8
		c-0.1,0.3-0.2,0.6-0.2,1V52h-0.8v-7H16.9z"/>
	<path class="st0" d="M24.1,42.3v1.4h-0.8v-1.4H24.1z M24.1,45v7h-0.8v-7H24.1z"/>
	<path class="st0" d="M29.9,46c-0.3-0.3-0.7-0.4-1.3-0.4c-0.4,0-0.8,0.1-1.1,0.3c-0.3,0.2-0.6,0.4-0.8,0.7c-0.2,0.3-0.4,0.6-0.5,1
		c-0.1,0.4-0.2,0.7-0.2,1.1c0,0.4,0.1,0.7,0.2,1.1c0.1,0.4,0.3,0.7,0.5,1c0.2,0.3,0.5,0.5,0.8,0.7c0.3,0.2,0.7,0.3,1.1,0.3
		c0.3,0,0.5,0,0.7-0.1c0.2-0.1,0.4-0.2,0.6-0.4c0.2-0.2,0.3-0.4,0.4-0.6c0.1-0.2,0.2-0.5,0.2-0.8h0.8c-0.1,0.8-0.4,1.5-0.9,2
		c-0.5,0.5-1.1,0.7-1.9,0.7c-0.5,0-1-0.1-1.4-0.3c-0.4-0.2-0.7-0.5-1-0.8c-0.3-0.3-0.5-0.7-0.6-1.2c-0.1-0.4-0.2-0.9-0.2-1.4
		s0.1-1,0.2-1.4c0.1-0.4,0.4-0.8,0.6-1.2c0.3-0.3,0.6-0.6,1-0.8c0.4-0.2,0.9-0.3,1.4-0.3c0.7,0,1.4,0.2,1.9,0.6
		c0.5,0.4,0.8,1,0.9,1.8h-0.8C30.4,46.7,30.2,46.3,29.9,46z"/>
	<path class="st0" d="M32.8,46.1c0.1-0.3,0.3-0.5,0.6-0.7c0.2-0.2,0.5-0.3,0.9-0.4c0.3-0.1,0.7-0.1,1.1-0.1c0.3,0,0.6,0,0.9,0.1
		c0.3,0.1,0.6,0.2,0.8,0.3c0.2,0.2,0.4,0.4,0.6,0.7c0.2,0.3,0.2,0.7,0.2,1.1v3.7c0,0.3,0.2,0.5,0.5,0.5c0.1,0,0.2,0,0.3-0.1v0.7
		c-0.1,0-0.2,0-0.3,0c-0.1,0-0.2,0-0.3,0c-0.2,0-0.4,0-0.5-0.1c-0.1-0.1-0.2-0.1-0.3-0.3c-0.1-0.1-0.1-0.2-0.1-0.4
		c0-0.1,0-0.3,0-0.5h0c-0.2,0.2-0.3,0.4-0.5,0.6c-0.2,0.2-0.3,0.3-0.5,0.4c-0.2,0.1-0.4,0.2-0.7,0.3c-0.2,0.1-0.5,0.1-0.9,0.1
		c-0.3,0-0.6,0-0.9-0.1c-0.3-0.1-0.5-0.2-0.7-0.4c-0.2-0.2-0.4-0.4-0.5-0.6c-0.1-0.3-0.2-0.6-0.2-0.9c0-0.5,0.1-0.9,0.3-1.1
		c0.2-0.3,0.5-0.5,0.8-0.6c0.4-0.1,0.7-0.2,1.2-0.3c0.4-0.1,0.9-0.1,1.3-0.2c0.2,0,0.3,0,0.5-0.1c0.1,0,0.2-0.1,0.3-0.1
		c0.1-0.1,0.2-0.2,0.2-0.3c0-0.1,0.1-0.3,0.1-0.5c0-0.3,0-0.5-0.1-0.7c-0.1-0.2-0.2-0.3-0.4-0.4c-0.2-0.1-0.4-0.2-0.6-0.2
		c-0.2,0-0.5-0.1-0.7-0.1c-0.5,0-1,0.1-1.3,0.4c-0.3,0.3-0.5,0.7-0.5,1.2h-0.8C32.6,46.7,32.7,46.4,32.8,46.1z M37,48.2
		c-0.1,0.1-0.2,0.2-0.3,0.2c-0.2,0-0.3,0.1-0.4,0.1c-0.4,0.1-0.7,0.1-1.1,0.2c-0.4,0-0.7,0.1-1,0.2c-0.3,0.1-0.6,0.2-0.8,0.4
		c-0.2,0.2-0.3,0.4-0.3,0.8c0,0.2,0,0.4,0.1,0.6c0.1,0.2,0.2,0.3,0.3,0.4c0.1,0.1,0.3,0.2,0.5,0.3c0.2,0.1,0.4,0.1,0.6,0.1
		c0.3,0,0.6,0,0.9-0.1c0.3-0.1,0.5-0.2,0.8-0.4c0.2-0.2,0.4-0.4,0.5-0.7c0.1-0.3,0.2-0.6,0.2-0.9L37,48.2L37,48.2z"/>
	<path class="st0" d="M40.4,42.3V52h-0.8v-9.7H40.4z"/>
	<path class="st0" d="M53.4,52l-0.1-1.8h0c-0.2,0.3-0.4,0.6-0.6,0.9c-0.2,0.2-0.5,0.5-0.8,0.6c-0.3,0.2-0.6,0.3-0.9,0.3
		c-0.3,0.1-0.7,0.1-1,0.1c-0.7,0-1.4-0.1-2-0.4c-0.6-0.3-1-0.6-1.4-1.1c-0.4-0.5-0.7-1-0.8-1.6c-0.2-0.6-0.3-1.2-0.3-1.9
		c0-0.7,0.1-1.3,0.3-1.9c0.2-0.6,0.5-1.1,0.8-1.6c0.4-0.5,0.8-0.8,1.4-1.1c0.6-0.3,1.2-0.4,2-0.4c0.5,0,1,0.1,1.4,0.2
		c0.4,0.1,0.8,0.3,1.2,0.6s0.6,0.6,0.9,1c0.2,0.4,0.4,0.9,0.5,1.4H53c0-0.3-0.1-0.6-0.3-0.8c-0.2-0.3-0.4-0.5-0.6-0.8
		c-0.3-0.2-0.6-0.4-0.9-0.6c-0.4-0.1-0.8-0.2-1.2-0.2c-0.6,0-1.2,0.1-1.6,0.4c-0.5,0.2-0.8,0.6-1.1,1c-0.3,0.4-0.5,0.9-0.6,1.4
		c-0.1,0.5-0.2,1-0.2,1.6c0,0.5,0.1,1,0.2,1.5c0.1,0.5,0.4,1,0.6,1.4c0.3,0.4,0.7,0.7,1.1,1c0.5,0.2,1,0.4,1.6,0.4
		c0.5,0,1-0.1,1.4-0.3c0.4-0.2,0.8-0.4,1-0.7c0.3-0.3,0.5-0.7,0.6-1.1c0.1-0.4,0.2-0.9,0.2-1.4H50v-0.8h4V52H53.4z"/>
	<path class="st0" d="M56.2,49.7c0.1,0.3,0.2,0.6,0.4,0.9c0.2,0.3,0.4,0.5,0.7,0.6c0.3,0.2,0.6,0.3,1,0.3c0.6,0,1.1-0.2,1.4-0.5
		c0.3-0.3,0.6-0.8,0.7-1.3h0.8c-0.2,0.8-0.5,1.4-1,1.8c-0.5,0.4-1.1,0.6-2,0.6c-0.5,0-1-0.1-1.4-0.3c-0.4-0.2-0.7-0.5-1-0.8
		c-0.2-0.3-0.4-0.7-0.6-1.2c-0.1-0.4-0.2-0.9-0.2-1.4c0-0.5,0.1-0.9,0.2-1.4c0.1-0.4,0.3-0.8,0.6-1.2c0.2-0.3,0.6-0.6,1-0.8
		c0.4-0.2,0.9-0.3,1.4-0.3c0.6,0,1,0.1,1.4,0.3c0.4,0.2,0.7,0.5,1,0.9c0.2,0.4,0.4,0.8,0.5,1.3c0.1,0.5,0.2,1,0.1,1.4h-5.3
		C56.1,49,56.1,49.3,56.2,49.7z M60.4,47.1c-0.1-0.3-0.2-0.6-0.4-0.8c-0.2-0.2-0.4-0.4-0.7-0.6c-0.3-0.1-0.6-0.2-0.9-0.2
		c-0.3,0-0.7,0.1-0.9,0.2c-0.3,0.1-0.5,0.3-0.7,0.6c-0.2,0.2-0.3,0.5-0.4,0.8c-0.1,0.3-0.2,0.6-0.2,0.9h4.5
		C60.5,47.7,60.5,47.4,60.4,47.1z"/>
	<path class="st0" d="M63.3,45v1.2h0c0.2-0.4,0.4-0.8,0.9-1c0.4-0.3,0.9-0.4,1.3-0.4c0.5,0,0.9,0.1,1.2,0.2c0.3,0.1,0.6,0.3,0.8,0.5
		c0.2,0.2,0.3,0.5,0.4,0.8c0.1,0.3,0.1,0.7,0.1,1.1V52h-0.8v-4.4c0-0.3,0-0.6-0.1-0.8c-0.1-0.3-0.1-0.5-0.3-0.7
		c-0.1-0.2-0.3-0.3-0.5-0.4c-0.2-0.1-0.5-0.2-0.8-0.2c-0.3,0-0.6,0.1-0.9,0.2c-0.3,0.1-0.5,0.3-0.7,0.5c-0.2,0.2-0.3,0.5-0.4,0.8
		c-0.1,0.3-0.2,0.6-0.2,1V52h-0.8v-7H63.3z"/>
	<path class="st0" d="M74,45.1c0.4,0.2,0.7,0.5,1,0.8c0.3,0.3,0.5,0.7,0.6,1.2c0.1,0.4,0.2,0.9,0.2,1.4s-0.1,1-0.2,1.4
		c-0.1,0.4-0.4,0.8-0.6,1.2c-0.3,0.3-0.6,0.6-1,0.8c-0.4,0.2-0.9,0.3-1.4,0.3c-0.5,0-1-0.1-1.4-0.3c-0.4-0.2-0.7-0.5-1-0.8
		c-0.3-0.3-0.5-0.7-0.6-1.2c-0.1-0.4-0.2-0.9-0.2-1.4s0.1-1,0.2-1.4c0.1-0.4,0.4-0.8,0.6-1.2c0.3-0.3,0.6-0.6,1-0.8
		c0.4-0.2,0.9-0.3,1.4-0.3C73.1,44.8,73.6,44.9,74,45.1z M71.5,45.8c-0.3,0.2-0.6,0.4-0.8,0.7c-0.2,0.3-0.4,0.6-0.5,1
		c-0.1,0.4-0.2,0.7-0.2,1.1c0,0.4,0.1,0.7,0.2,1.1c0.1,0.4,0.3,0.7,0.5,1c0.2,0.3,0.5,0.5,0.8,0.7c0.3,0.2,0.7,0.3,1.1,0.3
		s0.8-0.1,1.1-0.3c0.3-0.2,0.6-0.4,0.8-0.7c0.2-0.3,0.4-0.6,0.5-1c0.1-0.4,0.2-0.7,0.2-1.1c0-0.4-0.1-0.7-0.2-1.1
		c-0.1-0.4-0.3-0.7-0.5-1c-0.2-0.3-0.5-0.5-0.8-0.7c-0.3-0.2-0.7-0.3-1.1-0.3S71.8,45.6,71.5,45.8z"/>
	<path class="st0" d="M77.9,45v1.2h0c0.2-0.4,0.5-0.8,0.9-1c0.4-0.2,0.8-0.4,1.4-0.4c0.5,0,0.9,0.1,1.2,0.3c0.4,0.2,0.6,0.6,0.7,1
		c0.2-0.5,0.5-0.8,0.9-1c0.4-0.2,0.8-0.3,1.3-0.3c1.5,0,2.3,0.8,2.3,2.4V52h-0.8v-4.7c0-0.6-0.1-1-0.4-1.3c-0.2-0.3-0.7-0.5-1.3-0.5
		c-0.4,0-0.7,0.1-0.9,0.2c-0.2,0.1-0.4,0.3-0.6,0.6c-0.1,0.2-0.2,0.5-0.3,0.8c-0.1,0.3-0.1,0.6-0.1,0.9V52h-0.8v-4.7
		c0-0.2,0-0.5-0.1-0.7c0-0.2-0.1-0.4-0.2-0.6c-0.1-0.2-0.3-0.3-0.4-0.4c-0.2-0.1-0.4-0.1-0.7-0.1c-0.4,0-0.7,0.1-0.9,0.2
		c-0.3,0.1-0.5,0.3-0.6,0.5c-0.2,0.2-0.3,0.5-0.4,0.8c-0.1,0.3-0.1,0.7-0.1,1V52h-0.8v-7H77.9z"/>
	<path class="st0" d="M88.8,49.7c0.1,0.3,0.2,0.6,0.4,0.9c0.2,0.3,0.4,0.5,0.7,0.6c0.3,0.2,0.6,0.3,1,0.3c0.6,0,1.1-0.2,1.4-0.5
		c0.3-0.3,0.6-0.8,0.7-1.3H94c-0.2,0.8-0.5,1.4-1,1.8c-0.5,0.4-1.1,0.6-2,0.6c-0.5,0-1-0.1-1.4-0.3c-0.4-0.2-0.7-0.5-1-0.8
		c-0.2-0.3-0.4-0.7-0.6-1.2c-0.1-0.4-0.2-0.9-0.2-1.4c0-0.5,0.1-0.9,0.2-1.4c0.1-0.4,0.3-0.8,0.6-1.2c0.2-0.3,0.6-0.6,1-0.8
		c0.4-0.2,0.9-0.3,1.4-0.3c0.6,0,1,0.1,1.4,0.3c0.4,0.2,0.7,0.5,1,0.9c0.2,0.4,0.4,0.8,0.5,1.3c0.1,0.5,0.2,1,0.1,1.4h-5.3
		C88.7,49,88.7,49.3,88.8,49.7z M93,47.1c-0.1-0.3-0.2-0.6-0.4-0.8c-0.2-0.2-0.4-0.4-0.7-0.6c-0.3-0.1-0.6-0.2-0.9-0.2
		c-0.3,0-0.7,0.1-0.9,0.2c-0.3,0.1-0.5,0.3-0.7,0.6c-0.2,0.2-0.3,0.5-0.4,0.8c-0.1,0.3-0.2,0.6-0.2,0.9h4.5
		C93.1,47.7,93.1,47.4,93,47.1z"/>
	<path class="st0" d="M103.3,42.3c0.4,0,0.8,0,1.1,0.1c0.3,0.1,0.7,0.2,0.9,0.5c0.3,0.2,0.5,0.5,0.6,0.8c0.2,0.3,0.2,0.7,0.2,1.1
		c0,0.6-0.2,1.1-0.5,1.6c-0.3,0.5-0.8,0.7-1.4,0.9v0c0.3,0,0.6,0.1,0.8,0.2c0.2,0.1,0.4,0.3,0.5,0.5c0.1,0.2,0.2,0.4,0.3,0.7
		c0.1,0.2,0.1,0.5,0.1,0.8c0,0.2,0,0.4,0,0.6c0,0.2,0,0.5,0.1,0.7c0,0.2,0.1,0.5,0.1,0.7c0.1,0.2,0.1,0.4,0.2,0.5h-1
		c-0.1-0.1-0.1-0.2-0.1-0.3c0-0.1-0.1-0.3-0.1-0.4c0-0.1,0-0.3,0-0.4c0-0.1,0-0.3,0-0.4c0-0.3,0-0.7-0.1-1c0-0.3-0.1-0.6-0.3-0.9
		c-0.1-0.3-0.3-0.5-0.6-0.6c-0.2-0.2-0.6-0.2-1-0.2h-3.4V52H99v-9.7H103.3z M103.2,46.9c0.3,0,0.5,0,0.8-0.1
		c0.2-0.1,0.5-0.2,0.6-0.4c0.2-0.2,0.3-0.4,0.4-0.6c0.1-0.2,0.2-0.5,0.2-0.8c0-0.6-0.2-1.1-0.5-1.4c-0.3-0.3-0.8-0.5-1.5-0.5h-3.4
		v3.8H103.2z"/>
	<path class="st0" d="M108.3,49.7c0.1,0.3,0.2,0.6,0.4,0.9c0.2,0.3,0.4,0.5,0.7,0.6c0.3,0.2,0.6,0.3,1,0.3c0.6,0,1.1-0.2,1.4-0.5
		c0.3-0.3,0.6-0.8,0.7-1.3h0.8c-0.2,0.8-0.5,1.4-1,1.8c-0.5,0.4-1.1,0.6-2,0.6c-0.5,0-1-0.1-1.4-0.3c-0.4-0.2-0.7-0.5-1-0.8
		c-0.2-0.3-0.4-0.7-0.6-1.2c-0.1-0.4-0.2-0.9-0.2-1.4c0-0.5,0.1-0.9,0.2-1.4c0.1-0.4,0.3-0.8,0.6-1.2c0.2-0.3,0.6-0.6,1-0.8
		c0.4-0.2,0.9-0.3,1.4-0.3c0.5,0,1,0.1,1.4,0.3c0.4,0.2,0.7,0.5,0.9,0.9c0.2,0.4,0.4,0.8,0.5,1.3c0.1,0.5,0.2,1,0.1,1.4h-5.3
		C108.2,49,108.2,49.3,108.3,49.7z M112.4,47.1c-0.1-0.3-0.2-0.6-0.4-0.8c-0.2-0.2-0.4-0.4-0.7-0.6c-0.3-0.1-0.6-0.2-0.9-0.2
		c-0.3,0-0.6,0.1-0.9,0.2c-0.3,0.1-0.5,0.3-0.7,0.6c-0.2,0.2-0.3,0.5-0.4,0.8c-0.1,0.3-0.2,0.6-0.2,0.9h4.4
		C112.6,47.7,112.5,47.4,112.4,47.1z"/>
	<path class="st0" d="M118.5,46.4c-0.1-0.2-0.2-0.4-0.4-0.5c-0.2-0.1-0.4-0.2-0.6-0.3c-0.2-0.1-0.4-0.1-0.7-0.1
		c-0.2,0-0.4,0-0.6,0.1c-0.2,0-0.4,0.1-0.5,0.2c-0.2,0.1-0.3,0.2-0.4,0.4c-0.1,0.2-0.1,0.3-0.1,0.6c0,0.2,0,0.3,0.1,0.5
		c0.1,0.1,0.2,0.2,0.4,0.3c0.1,0.1,0.3,0.2,0.5,0.2c0.2,0.1,0.3,0.1,0.5,0.1l1.1,0.3c0.2,0,0.5,0.1,0.7,0.2c0.2,0.1,0.4,0.2,0.6,0.4
		c0.2,0.2,0.3,0.3,0.4,0.6c0.1,0.2,0.2,0.5,0.2,0.8c0,0.4-0.1,0.7-0.3,1c-0.2,0.3-0.4,0.5-0.6,0.6c-0.3,0.2-0.6,0.3-0.9,0.4
		c-0.3,0.1-0.6,0.1-1,0.1c-0.8,0-1.5-0.2-2-0.6c-0.5-0.4-0.8-1-0.9-1.9h0.8c0,0.6,0.2,1,0.6,1.3c0.4,0.3,0.8,0.4,1.4,0.4
		c0.2,0,0.4,0,0.6-0.1c0.2,0,0.4-0.1,0.6-0.2c0.2-0.1,0.3-0.2,0.5-0.4c0.1-0.2,0.2-0.4,0.2-0.6c0-0.2,0-0.4-0.1-0.5
		c-0.1-0.1-0.2-0.3-0.3-0.4c-0.1-0.1-0.3-0.2-0.5-0.2c-0.2-0.1-0.4-0.1-0.6-0.2l-1.1-0.2c-0.3-0.1-0.5-0.2-0.8-0.3
		c-0.2-0.1-0.4-0.2-0.6-0.4c-0.2-0.1-0.3-0.3-0.4-0.5c-0.1-0.2-0.1-0.5-0.1-0.8c0-0.4,0.1-0.7,0.2-0.9c0.2-0.3,0.4-0.5,0.6-0.6
		c0.2-0.2,0.5-0.3,0.8-0.3c0.3-0.1,0.6-0.1,0.9-0.1c0.3,0,0.7,0,1,0.1c0.3,0.1,0.6,0.2,0.8,0.4c0.2,0.2,0.4,0.4,0.5,0.7
		c0.1,0.3,0.2,0.6,0.2,1h-0.8C118.6,46.8,118.6,46.6,118.5,46.4z"/>
	<path class="st0" d="M125.2,45.1c0.4,0.2,0.7,0.5,1,0.8c0.3,0.3,0.5,0.7,0.6,1.2c0.1,0.4,0.2,0.9,0.2,1.4s-0.1,1-0.2,1.4
		c-0.1,0.4-0.3,0.8-0.6,1.2c-0.3,0.3-0.6,0.6-1,0.8c-0.4,0.2-0.9,0.3-1.4,0.3c-0.5,0-1-0.1-1.4-0.3c-0.4-0.2-0.7-0.5-1-0.8
		c-0.3-0.3-0.5-0.7-0.6-1.2c-0.1-0.4-0.2-0.9-0.2-1.4s0.1-1,0.2-1.4c0.1-0.4,0.3-0.8,0.6-1.2c0.3-0.3,0.6-0.6,1-0.8
		c0.4-0.2,0.9-0.3,1.4-0.3C124.3,44.8,124.8,44.9,125.2,45.1z M122.8,45.8c-0.3,0.2-0.6,0.4-0.7,0.7c-0.2,0.3-0.3,0.6-0.5,1
		c-0.1,0.4-0.2,0.7-0.2,1.1c0,0.4,0.1,0.7,0.2,1.1c0.1,0.4,0.3,0.7,0.5,1c0.2,0.3,0.4,0.5,0.7,0.7c0.3,0.2,0.6,0.3,1,0.3
		c0.4,0,0.7-0.1,1-0.3c0.3-0.2,0.6-0.4,0.7-0.7c0.2-0.3,0.3-0.6,0.5-1c0.1-0.4,0.2-0.7,0.2-1.1c0-0.4-0.1-0.7-0.2-1.1
		c-0.1-0.4-0.3-0.7-0.5-1c-0.2-0.3-0.4-0.5-0.7-0.7c-0.3-0.2-0.6-0.3-1-0.3C123.4,45.5,123.1,45.6,122.8,45.8z"/>
	<path class="st0" d="M133.1,52v-1.3h0c-0.2,0.5-0.5,0.8-1,1.1c-0.4,0.2-0.9,0.4-1.4,0.4c-0.4,0-0.8-0.1-1.1-0.2
		c-0.3-0.1-0.6-0.3-0.7-0.5c-0.2-0.2-0.3-0.5-0.4-0.8c-0.1-0.3-0.1-0.7-0.1-1.1V45h0.8v4.5c0,0.6,0.2,1.1,0.4,1.4
		c0.3,0.3,0.7,0.5,1.4,0.5c0.4,0,0.7-0.1,0.9-0.2c0.3-0.2,0.5-0.4,0.6-0.6c0.2-0.3,0.3-0.6,0.4-0.9c0.1-0.3,0.1-0.7,0.1-1V45h0.8v7
		H133.1z"/>
	<path class="st0" d="M136.2,45v1.6h0c0.2-0.6,0.5-1,1-1.3c0.4-0.3,1-0.4,1.6-0.4v0.9c-0.4,0-0.7,0-1,0.2c-0.3,0.1-0.6,0.3-0.8,0.5
		c-0.2,0.2-0.4,0.5-0.5,0.8c-0.1,0.3-0.2,0.7-0.2,1V52h-0.8v-7H136.2z"/>
	<path class="st0" d="M143.5,46c-0.3-0.3-0.7-0.4-1.3-0.4c-0.4,0-0.7,0.1-1,0.3c-0.3,0.2-0.6,0.4-0.7,0.7c-0.2,0.3-0.3,0.6-0.5,1
		c-0.1,0.4-0.2,0.7-0.2,1.1c0,0.4,0.1,0.7,0.2,1.1c0.1,0.4,0.3,0.7,0.5,1c0.2,0.3,0.4,0.5,0.7,0.7c0.3,0.2,0.6,0.3,1,0.3
		c0.3,0,0.5,0,0.7-0.1c0.2-0.1,0.4-0.2,0.6-0.4c0.2-0.2,0.3-0.4,0.4-0.6c0.1-0.2,0.2-0.5,0.2-0.8h0.8c-0.1,0.8-0.4,1.5-0.9,2
		c-0.5,0.5-1.1,0.7-1.9,0.7c-0.5,0-1-0.1-1.4-0.3c-0.4-0.2-0.7-0.5-1-0.8c-0.3-0.3-0.5-0.7-0.6-1.2c-0.1-0.4-0.2-0.9-0.2-1.4
		s0.1-1,0.2-1.4c0.1-0.4,0.3-0.8,0.6-1.2c0.3-0.3,0.6-0.6,1-0.8c0.4-0.2,0.9-0.3,1.4-0.3c0.7,0,1.4,0.2,1.9,0.6
		c0.5,0.4,0.8,1,0.9,1.8h-0.8C144.1,46.7,143.9,46.3,143.5,46z"/>
	<path class="st0" d="M146.9,49.7c0.1,0.3,0.2,0.6,0.4,0.9c0.2,0.3,0.4,0.5,0.7,0.6c0.3,0.2,0.6,0.3,1,0.3c0.6,0,1.1-0.2,1.4-0.5
		c0.3-0.3,0.6-0.8,0.7-1.3h0.8c-0.2,0.8-0.5,1.4-1,1.8c-0.5,0.4-1.1,0.6-2,0.6c-0.5,0-1-0.1-1.4-0.3c-0.4-0.2-0.7-0.5-1-0.8
		c-0.2-0.3-0.4-0.7-0.6-1.2c-0.1-0.4-0.2-0.9-0.2-1.4c0-0.5,0.1-0.9,0.2-1.4c0.1-0.4,0.3-0.8,0.6-1.2c0.2-0.3,0.6-0.6,1-0.8
		c0.4-0.2,0.9-0.3,1.4-0.3c0.5,0,1,0.1,1.4,0.3c0.4,0.2,0.7,0.5,0.9,0.9c0.2,0.4,0.4,0.8,0.5,1.3c0.1,0.5,0.2,1,0.1,1.4h-5.3
		C146.7,49,146.8,49.3,146.9,49.7z M151,47.1c-0.1-0.3-0.2-0.6-0.4-0.8c-0.2-0.2-0.4-0.4-0.7-0.6c-0.3-0.1-0.6-0.2-0.9-0.2
		c-0.3,0-0.6,0.1-0.9,0.2c-0.3,0.1-0.5,0.3-0.7,0.6c-0.2,0.2-0.3,0.5-0.4,0.8c-0.1,0.3-0.2,0.6-0.2,0.9h4.4
		C151.2,47.7,151.1,47.4,151,47.1z"/>
</g>
</svg>
