<?xml version="1.0" encoding="utf-8"?>
<!-- Generator: Adobe Illustrator 18.0.0, SVG Export Plug-In . SVG Version: 6.00 Build 0)  -->
<!DOCTYPE svg PUBLIC "-//W3C//DTD SVG 1.1//EN" "http://www.w3.org/Graphics/SVG/1.1/DTD/svg11.dtd">
<svg version="1.1" id="Layer_1" xmlns="http://www.w3.org/2000/svg" xmlns:xlink="http://www.w3.org/1999/xlink" x="0px" y="0px"
	 width="172px" height="136px" viewBox="0 0 172 136" style="enable-background:new 0 0 172 136;" xml:space="preserve">
<style type="text/css">
	.st0{fill:#FFFFFF;}
	.st1{fill:#2B388F;}
	.st2{fill:#CFD1E5;}
	.st3{fill:#2D3D92;}
	.st4{fill:#2B4D9E;}
	.st5{fill:#256BB3;}
	.st6{fill:#2C4093;}
	.st7{fill:#2C4596;}
	.st8{fill:#2761AC;}
	.st9{fill:#2958A5;}
	.st10{fill:#285DA9;}
	.st11{fill:#2B52A1;}
	.st12{fill:#2A4D9B;}
	.st13{fill:#2665AF;}
	.st14{fill:#2376BB;}
	.st15{fill:#304E9D;}
	.st16{fill:#276FB6;}
	.st17{fill:#2D60A8;}
	.st18{fill:#3273B6;}
	.st19{fill:#3C5AA4;}
	.st20{fill:#FEFEFF;}
</style>
<rect x="0" y="0" class="st0" width="172" height="136"/>
<path class="st1" d="M10,92.7c0-2.4,0.4-4.7,1.1-6.9c0.7-2.1,1.8-4,3.1-5.6c1.4-1.6,3-2.8,5-3.7c2-0.9,4.2-1.4,6.7-1.4
	c2,0,3.7,0.3,5.1,0.8c1.4,0.5,2.6,1.2,3.6,1.9c1,0.8,1.8,1.6,2.4,2.5c0.6,0.9,1.1,1.8,1.4,2.6c0.3,0.8,0.6,1.5,0.7,2.1
	c0.1,0.6,0.2,0.9,0.2,1h-2.1c-0.2-1.4-0.7-2.7-1.4-3.8c-0.7-1.1-1.5-2.1-2.6-2.8c-1-0.8-2.2-1.4-3.4-1.8c-1.3-0.4-2.6-0.6-4-0.6
	c-2.2,0-4.1,0.4-5.9,1.3c-1.7,0.8-3.2,2-4.4,3.4c-1.2,1.4-2.1,3.1-2.7,5c-0.6,1.9-0.9,3.9-0.9,6.1c0,2.2,0.3,4.2,0.9,6.1
	c0.6,1.9,1.5,3.6,2.7,5c1.2,1.4,2.6,2.6,4.4,3.4c1.7,0.8,3.7,1.3,5.9,1.3c1.6,0,3.1-0.3,4.6-1c1.4-0.7,2.7-1.6,3.7-2.7
	c1.1-1.1,1.9-2.4,2.6-3.8c0.6-1.5,1-3,1.1-4.5h2.1c-0.2,2-0.7,3.8-1.5,5.5c-0.8,1.7-1.8,3.1-3,4.4s-2.7,2.2-4.3,2.9
	c-1.6,0.7-3.4,1-5.2,1c-2.5,0-4.7-0.5-6.7-1.4c-2-0.9-3.7-2.1-5-3.7c-1.4-1.6-2.4-3.4-3.1-5.6C10.4,97.4,10,95.1,10,92.7z"/>
<path class="st1" d="M46.1,76v33.4h-1.8V76H46.1z"/>
<path class="st1" d="M52.2,80.8V76H54v4.8H52.2z M52.2,109.4V85.3H54v24.1H52.2z"/>
<path class="st1" d="M59.6,85.3h1.8v5.2h0.1c0.3-0.9,0.8-1.7,1.3-2.4c0.6-0.7,1.2-1.3,2-1.8s1.6-0.9,2.5-1.1
	c0.9-0.2,1.8-0.4,2.8-0.4c1.4,0,2.6,0.2,3.6,0.5c1,0.3,1.8,0.8,2.4,1.4c0.6,0.6,1.1,1.2,1.5,1.9c0.4,0.7,0.6,1.4,0.8,2.1
	c0.2,0.7,0.2,1.4,0.3,2.1c0,0.7,0,1.3,0,1.8v14.9h-1.8V94.2c0-0.6,0-1.3-0.1-2.2c-0.1-0.9-0.4-1.8-0.8-2.6c-0.5-0.8-1.1-1.5-2.1-2.1
	c-0.9-0.6-2.2-0.9-3.8-0.9c-1.4,0-2.6,0.3-3.7,0.7c-1.1,0.5-2,1.2-2.7,2.1c-0.7,0.9-1.3,2-1.7,3.2c-0.4,1.2-0.6,2.6-0.6,4v13h-1.8
	V85.3z"/>
<path class="st1" d="M83,92.9c0-2.4,0.4-4.6,1.1-6.8c0.7-2.1,1.7-4,3.1-5.6c1.3-1.6,3-2.9,4.9-3.9c1.9-1,4.2-1.4,6.7-1.4
	c1.7,0,3.4,0.3,4.9,0.7c1.6,0.5,3,1.2,4.2,2.2c1.2,1,2.3,2.1,3.1,3.5c0.8,1.4,1.4,2.9,1.7,4.7h-2c-0.8-2.9-2.2-5.2-4.2-6.9
	c-2-1.7-4.6-2.5-7.7-2.5c-2.2,0-4.2,0.4-5.9,1.3c-1.7,0.9-3.2,2-4.3,3.5c-1.2,1.5-2,3.2-2.6,5.1c-0.6,1.9-0.9,3.9-0.9,6
	c0,2.1,0.3,4.1,0.9,6c0.6,1.9,1.4,3.5,2.6,4.9c1.1,1.4,2.6,2.5,4.3,3.3c1.7,0.8,3.7,1.2,6,1.2c2,0,3.8-0.3,5.4-1
	c1.6-0.7,2.9-1.6,4-2.8c1.1-1.2,1.9-2.6,2.5-4.3c0.6-1.7,0.8-3.5,0.7-5.6H99.2V93h14.1v16.4h-1.8v-7.1h-0.1c-0.4,1.2-1,2.3-1.8,3.3
	c-0.8,1-1.8,1.8-2.9,2.5c-1.1,0.7-2.3,1.2-3.7,1.6c-1.4,0.4-2.8,0.6-4.2,0.6c-2.5,0-4.8-0.5-6.7-1.4c-2-0.9-3.6-2.1-4.9-3.7
	c-1.3-1.6-2.4-3.4-3-5.5C83.4,97.5,83,95.3,83,92.9z"/>
<path class="st1" d="M119.3,97.6v0.3c0,1.4,0.2,2.7,0.6,4c0.4,1.3,0.9,2.4,1.7,3.4c0.7,1,1.7,1.7,2.8,2.3c1.1,0.6,2.4,0.8,3.9,0.8
	c2.4,0,4.3-0.6,5.7-1.9c1.4-1.3,2.4-3,2.9-5.3h1.8c-0.5,2.8-1.7,5-3.4,6.5s-4.1,2.2-7,2.2c-1.8,0-3.3-0.3-4.7-1
	c-1.3-0.6-2.4-1.5-3.3-2.6c-0.9-1.1-1.6-2.4-2-3.9c-0.4-1.5-0.7-3.1-0.7-4.9c0-1.7,0.2-3.3,0.7-4.8c0.5-1.5,1.1-2.9,2-4.1
	c0.9-1.2,2-2.1,3.4-2.8c1.4-0.7,3-1.1,4.8-1.1c1.7,0,3.2,0.3,4.5,0.9c1.3,0.6,2.4,1.5,3.3,2.6c0.9,1.1,1.5,2.3,2,3.7
	c0.5,1.4,0.7,2.9,0.7,4.6c0,0.2,0,0.3,0,0.5c0,0.2,0,0.4,0,0.5H119.3z M137,96.1c-0.1-1.3-0.3-2.6-0.7-3.7c-0.4-1.2-0.9-2.2-1.7-3.1
	c-0.7-0.9-1.6-1.6-2.7-2.1c-1-0.5-2.2-0.8-3.6-0.8c-1.4,0-2.7,0.3-3.8,0.8c-1.1,0.5-2,1.3-2.8,2.2c-0.8,0.9-1.3,1.9-1.7,3.1
	c-0.4,1.2-0.7,2.4-0.8,3.7H137z"/>
<path class="st1" d="M142.9,85.3h1.8v5.2h0.1c0.3-0.9,0.8-1.7,1.3-2.4c0.6-0.7,1.2-1.3,2-1.8c0.8-0.5,1.6-0.9,2.5-1.1
	c0.9-0.2,1.8-0.4,2.8-0.4c1.4,0,2.6,0.2,3.6,0.5c1,0.3,1.8,0.8,2.4,1.4c0.6,0.6,1.1,1.2,1.5,1.9c0.4,0.7,0.6,1.4,0.8,2.1
	c0.2,0.7,0.2,1.4,0.3,2.1c0,0.7,0,1.3,0,1.8v14.9h-1.8V94.2c0-0.6,0-1.3-0.1-2.2c-0.1-0.9-0.4-1.8-0.8-2.6c-0.5-0.8-1.1-1.5-2.1-2.1
	c-0.9-0.6-2.2-0.9-3.8-0.9c-1.4,0-2.6,0.3-3.7,0.7c-1.1,0.5-2,1.2-2.7,2.1c-0.7,0.9-1.3,2-1.7,3.2c-0.4,1.2-0.6,2.6-0.6,4v13h-1.8
	V85.3z"/>
<path class="st1" d="M18.5,118.4c-0.2-0.3-0.4-0.5-0.7-0.7c-0.3-0.2-0.6-0.3-0.9-0.4c-0.3-0.1-0.6-0.2-1-0.2c-0.6,0-1.2,0.1-1.6,0.4
	c-0.5,0.2-0.8,0.6-1.1,0.9c-0.3,0.4-0.5,0.8-0.6,1.3c-0.1,0.5-0.2,1-0.2,1.5c0,0.5,0.1,1,0.2,1.5c0.1,0.5,0.4,0.9,0.6,1.3
	c0.3,0.4,0.7,0.7,1.1,0.9s1,0.4,1.6,0.4c0.4,0,0.8-0.1,1.2-0.2c0.4-0.2,0.7-0.4,0.9-0.6c0.3-0.3,0.5-0.6,0.6-1
	c0.2-0.4,0.3-0.8,0.3-1.2h0.9c-0.1,0.6-0.2,1.1-0.4,1.6c-0.2,0.5-0.5,0.9-0.8,1.2c-0.3,0.3-0.7,0.6-1.2,0.8c-0.5,0.2-1,0.3-1.5,0.3
	c-0.7,0-1.4-0.1-2-0.4c-0.6-0.3-1-0.6-1.4-1.1c-0.4-0.5-0.7-1-0.8-1.6c-0.2-0.6-0.3-1.2-0.3-1.9c0-0.7,0.1-1.3,0.3-1.9
	c0.2-0.6,0.5-1.1,0.8-1.6c0.4-0.5,0.8-0.8,1.4-1.1c0.6-0.3,1.2-0.4,2-0.4c0.5,0,0.9,0.1,1.3,0.2c0.4,0.1,0.8,0.3,1.2,0.6
	c0.4,0.3,0.6,0.6,0.9,1c0.2,0.4,0.4,0.8,0.4,1.3h-0.9C18.8,119,18.7,118.7,18.5,118.4z"/>
<path class="st1" d="M22,116.5v9.5h-0.8v-9.5H22z"/>
<path class="st1" d="M24.5,116.5v1.3h-0.8v-1.3H24.5z M24.5,119.2v6.8h-0.8v-6.8H24.5z"/>
<path class="st1" d="M26.9,119.2v1.2h0c0.2-0.4,0.4-0.7,0.9-1c0.4-0.3,0.9-0.4,1.3-0.4c0.5,0,0.9,0.1,1.2,0.2
	c0.3,0.1,0.6,0.3,0.8,0.5c0.2,0.2,0.3,0.5,0.4,0.8c0.1,0.3,0.1,0.7,0.1,1.1v4.4h-0.8v-4.3c0-0.3,0-0.6-0.1-0.8
	c-0.1-0.3-0.1-0.5-0.3-0.7c-0.1-0.2-0.3-0.3-0.5-0.4c-0.2-0.1-0.5-0.2-0.8-0.2c-0.3,0-0.6,0.1-0.9,0.2c-0.3,0.1-0.5,0.3-0.7,0.5
	c-0.2,0.2-0.3,0.5-0.4,0.7c-0.1,0.3-0.2,0.6-0.2,0.9v4h-0.8v-6.8H26.9z"/>
<path class="st1" d="M34.1,116.5v1.3h-0.8v-1.3H34.1z M34.1,119.2v6.8h-0.8v-6.8H34.1z"/>
<path class="st1" d="M39.9,120.1c-0.3-0.3-0.7-0.4-1.3-0.4c-0.4,0-0.8,0.1-1.1,0.3c-0.3,0.2-0.6,0.4-0.8,0.7
	c-0.2,0.3-0.4,0.6-0.5,0.9c-0.1,0.3-0.2,0.7-0.2,1.1s0.1,0.7,0.2,1.1c0.1,0.3,0.3,0.7,0.5,0.9c0.2,0.3,0.5,0.5,0.8,0.7
	c0.3,0.2,0.7,0.3,1.1,0.3c0.3,0,0.5,0,0.7-0.1c0.2-0.1,0.4-0.2,0.6-0.4c0.2-0.2,0.3-0.4,0.4-0.6c0.1-0.2,0.2-0.5,0.2-0.8h0.8
	c-0.1,0.8-0.4,1.5-0.9,1.9c-0.5,0.5-1.1,0.7-1.9,0.7c-0.5,0-1-0.1-1.4-0.3c-0.4-0.2-0.7-0.4-1-0.8c-0.3-0.3-0.5-0.7-0.6-1.1
	c-0.1-0.4-0.2-0.9-0.2-1.4c0-0.5,0.1-1,0.2-1.4c0.1-0.4,0.4-0.8,0.6-1.1c0.3-0.3,0.6-0.6,1-0.8c0.4-0.2,0.9-0.3,1.4-0.3
	c0.7,0,1.4,0.2,1.9,0.6c0.5,0.4,0.8,1,0.9,1.8h-0.8C40.4,120.8,40.2,120.4,39.9,120.1z"/>
<path class="st1" d="M42.8,120.2c0.1-0.3,0.3-0.5,0.6-0.7c0.2-0.2,0.5-0.3,0.9-0.4c0.3-0.1,0.7-0.1,1.1-0.1c0.3,0,0.6,0,0.9,0.1
	c0.3,0.1,0.6,0.2,0.8,0.3c0.2,0.2,0.4,0.4,0.6,0.7c0.2,0.3,0.2,0.7,0.2,1.1v3.6c0,0.3,0.2,0.5,0.5,0.5c0.1,0,0.2,0,0.3-0.1v0.7
	c-0.1,0-0.2,0-0.3,0c-0.1,0-0.2,0-0.3,0c-0.2,0-0.4,0-0.5-0.1c-0.1-0.1-0.2-0.1-0.3-0.2c-0.1-0.1-0.1-0.2-0.1-0.4c0-0.1,0-0.3,0-0.5
	h0c-0.2,0.2-0.3,0.4-0.5,0.6c-0.2,0.2-0.3,0.3-0.5,0.4c-0.2,0.1-0.4,0.2-0.7,0.3c-0.2,0.1-0.5,0.1-0.9,0.1c-0.3,0-0.6,0-0.9-0.1
	c-0.3-0.1-0.5-0.2-0.7-0.4c-0.2-0.2-0.4-0.4-0.5-0.6c-0.1-0.3-0.2-0.6-0.2-0.9c0-0.5,0.1-0.9,0.3-1.1c0.2-0.3,0.5-0.5,0.8-0.6
	c0.4-0.1,0.7-0.2,1.2-0.3c0.4-0.1,0.9-0.1,1.3-0.2c0.2,0,0.3,0,0.5-0.1c0.1,0,0.2-0.1,0.3-0.1c0.1-0.1,0.2-0.2,0.2-0.3
	c0-0.1,0.1-0.3,0.1-0.5c0-0.3,0-0.5-0.1-0.7c-0.1-0.2-0.2-0.3-0.4-0.4c-0.2-0.1-0.4-0.2-0.6-0.2c-0.2,0-0.5-0.1-0.7-0.1
	c-0.5,0-1,0.1-1.3,0.4c-0.3,0.3-0.5,0.7-0.5,1.2h-0.8C42.6,120.9,42.7,120.5,42.8,120.2z M47,122.3c-0.1,0.1-0.2,0.2-0.3,0.2
	c-0.2,0-0.3,0.1-0.4,0.1c-0.4,0.1-0.7,0.1-1.1,0.2c-0.4,0-0.7,0.1-1,0.2c-0.3,0.1-0.6,0.2-0.8,0.4c-0.2,0.2-0.3,0.4-0.3,0.8
	c0,0.2,0,0.4,0.1,0.6c0.1,0.2,0.2,0.3,0.3,0.4c0.1,0.1,0.3,0.2,0.5,0.3c0.2,0.1,0.4,0.1,0.6,0.1c0.3,0,0.6,0,0.9-0.1
	c0.3-0.1,0.5-0.2,0.8-0.4c0.2-0.2,0.4-0.4,0.5-0.7c0.1-0.3,0.2-0.6,0.2-0.9L47,122.3L47,122.3z"/>
<path class="st1" d="M50.4,116.5v9.5h-0.8v-9.5H50.4z"/>
<path class="st1" d="M63.4,126l-0.1-1.7h0c-0.2,0.3-0.4,0.6-0.6,0.9c-0.2,0.2-0.5,0.4-0.8,0.6c-0.3,0.2-0.6,0.3-0.9,0.3
	c-0.3,0.1-0.7,0.1-1,0.1c-0.7,0-1.4-0.1-2-0.4c-0.6-0.3-1-0.6-1.4-1.1c-0.4-0.5-0.7-1-0.8-1.6c-0.2-0.6-0.3-1.2-0.3-1.9
	c0-0.7,0.1-1.3,0.3-1.9c0.2-0.6,0.5-1.1,0.8-1.6c0.4-0.5,0.8-0.8,1.4-1.1c0.6-0.3,1.2-0.4,2-0.4c0.5,0,1,0.1,1.4,0.2
	c0.4,0.1,0.8,0.3,1.2,0.6c0.3,0.3,0.6,0.6,0.9,1c0.2,0.4,0.4,0.8,0.5,1.4H63c0-0.3-0.1-0.6-0.3-0.8c-0.2-0.3-0.4-0.5-0.6-0.8
	c-0.3-0.2-0.6-0.4-0.9-0.6c-0.4-0.1-0.8-0.2-1.2-0.2c-0.6,0-1.2,0.1-1.6,0.4c-0.5,0.2-0.8,0.6-1.1,0.9c-0.3,0.4-0.5,0.8-0.6,1.3
	c-0.1,0.5-0.2,1-0.2,1.5c0,0.5,0.1,1,0.2,1.5c0.1,0.5,0.4,0.9,0.6,1.3c0.3,0.4,0.7,0.7,1.1,0.9c0.5,0.2,1,0.4,1.6,0.4
	c0.5,0,1-0.1,1.4-0.3c0.4-0.2,0.8-0.4,1-0.7c0.3-0.3,0.5-0.7,0.6-1.1c0.1-0.4,0.2-0.9,0.2-1.4H60v-0.8h4v4.8H63.4z"/>
<path class="st1" d="M66.2,123.7c0.1,0.3,0.2,0.6,0.4,0.9c0.2,0.3,0.4,0.5,0.7,0.6c0.3,0.2,0.6,0.3,1,0.3c0.6,0,1.1-0.2,1.4-0.5
	c0.3-0.3,0.6-0.7,0.7-1.3h0.8c-0.2,0.8-0.5,1.4-1,1.8c-0.5,0.4-1.1,0.6-2,0.6c-0.5,0-1-0.1-1.4-0.3c-0.4-0.2-0.7-0.5-1-0.8
	c-0.2-0.3-0.4-0.7-0.6-1.2c-0.1-0.4-0.2-0.9-0.2-1.4c0-0.5,0.1-0.9,0.2-1.3c0.1-0.4,0.3-0.8,0.6-1.2c0.2-0.3,0.6-0.6,1-0.8
	c0.4-0.2,0.9-0.3,1.4-0.3c0.6,0,1,0.1,1.4,0.3c0.4,0.2,0.7,0.5,1,0.9c0.2,0.4,0.4,0.8,0.5,1.2c0.1,0.5,0.2,0.9,0.1,1.4h-5.3
	C66.1,123.1,66.1,123.4,66.2,123.7z M70.4,121.2c-0.1-0.3-0.2-0.6-0.4-0.8c-0.2-0.2-0.4-0.4-0.7-0.5c-0.3-0.1-0.6-0.2-0.9-0.2
	c-0.3,0-0.7,0.1-0.9,0.2c-0.3,0.1-0.5,0.3-0.7,0.5c-0.2,0.2-0.3,0.5-0.4,0.8c-0.1,0.3-0.2,0.6-0.2,0.9h4.5
	C70.5,121.8,70.5,121.5,70.4,121.2z"/>
<path class="st1" d="M73.3,119.2v1.2h0c0.2-0.4,0.4-0.7,0.9-1c0.4-0.3,0.9-0.4,1.3-0.4c0.5,0,0.9,0.1,1.2,0.2
	c0.3,0.1,0.6,0.3,0.8,0.5c0.2,0.2,0.3,0.5,0.4,0.8s0.1,0.7,0.1,1.1v4.4h-0.8v-4.3c0-0.3,0-0.6-0.1-0.8c-0.1-0.3-0.1-0.5-0.3-0.7
	c-0.1-0.2-0.3-0.3-0.5-0.4c-0.2-0.1-0.5-0.2-0.8-0.2c-0.3,0-0.6,0.1-0.9,0.2c-0.3,0.1-0.5,0.3-0.7,0.5c-0.2,0.2-0.3,0.5-0.4,0.7
	c-0.1,0.3-0.2,0.6-0.2,0.9v4h-0.8v-6.8H73.3z"/>
<path class="st1" d="M84,119.2c0.4,0.2,0.7,0.5,1,0.8c0.3,0.3,0.5,0.7,0.6,1.1c0.1,0.4,0.2,0.9,0.2,1.4c0,0.5-0.1,1-0.2,1.4
	c-0.1,0.4-0.4,0.8-0.6,1.1c-0.3,0.3-0.6,0.6-1,0.8c-0.4,0.2-0.9,0.3-1.4,0.3c-0.5,0-1-0.1-1.4-0.3c-0.4-0.2-0.7-0.4-1-0.8
	c-0.3-0.3-0.5-0.7-0.6-1.1c-0.1-0.4-0.2-0.9-0.2-1.4c0-0.5,0.1-1,0.2-1.4c0.1-0.4,0.4-0.8,0.6-1.1c0.3-0.3,0.6-0.6,1-0.8
	c0.4-0.2,0.9-0.3,1.4-0.3C83.1,119,83.6,119.1,84,119.2z M81.5,119.9c-0.3,0.2-0.6,0.4-0.8,0.7c-0.2,0.3-0.4,0.6-0.5,0.9
	c-0.1,0.3-0.2,0.7-0.2,1.1s0.1,0.7,0.2,1.1c0.1,0.3,0.3,0.7,0.5,0.9c0.2,0.3,0.5,0.5,0.8,0.7c0.3,0.2,0.7,0.3,1.1,0.3
	s0.8-0.1,1.1-0.3c0.3-0.2,0.6-0.4,0.8-0.7c0.2-0.3,0.4-0.6,0.5-0.9c0.1-0.3,0.2-0.7,0.2-1.1s-0.1-0.7-0.2-1.1
	c-0.1-0.3-0.3-0.7-0.5-0.9c-0.2-0.3-0.5-0.5-0.8-0.7c-0.3-0.2-0.7-0.3-1.1-0.3S81.8,119.7,81.5,119.9z"/>
<path class="st1" d="M87.9,119.2v1.2h0c0.2-0.4,0.5-0.8,0.9-1c0.4-0.2,0.8-0.4,1.4-0.4c0.5,0,0.9,0.1,1.2,0.3c0.4,0.2,0.6,0.6,0.7,1
	c0.2-0.5,0.5-0.8,0.9-1c0.4-0.2,0.8-0.3,1.3-0.3c1.5,0,2.3,0.8,2.3,2.4v4.6h-0.8v-4.6c0-0.6-0.1-1-0.4-1.3c-0.2-0.3-0.7-0.4-1.3-0.4
	c-0.4,0-0.7,0.1-0.9,0.2c-0.2,0.1-0.4,0.3-0.6,0.6c-0.1,0.2-0.2,0.5-0.3,0.8c-0.1,0.3-0.1,0.6-0.1,0.9v3.9h-0.8v-4.6
	c0-0.2,0-0.4-0.1-0.7c0-0.2-0.1-0.4-0.2-0.5c-0.1-0.2-0.3-0.3-0.4-0.4c-0.2-0.1-0.4-0.1-0.7-0.1c-0.4,0-0.7,0.1-0.9,0.2
	c-0.3,0.1-0.5,0.3-0.6,0.5c-0.2,0.2-0.3,0.5-0.4,0.8c-0.1,0.3-0.1,0.6-0.1,1v3.8h-0.8v-6.8H87.9z"/>
<path class="st1" d="M98.8,123.7c0.1,0.3,0.2,0.6,0.4,0.9c0.2,0.3,0.4,0.5,0.7,0.6c0.3,0.2,0.6,0.3,1,0.3c0.6,0,1.1-0.2,1.4-0.5
	c0.3-0.3,0.6-0.7,0.7-1.3h0.8c-0.2,0.8-0.5,1.4-1,1.8c-0.5,0.4-1.1,0.6-2,0.6c-0.5,0-1-0.1-1.4-0.3c-0.4-0.2-0.7-0.5-1-0.8
	c-0.2-0.3-0.4-0.7-0.6-1.2c-0.1-0.4-0.2-0.9-0.2-1.4c0-0.5,0.1-0.9,0.2-1.3c0.1-0.4,0.3-0.8,0.6-1.2c0.2-0.3,0.6-0.6,1-0.8
	c0.4-0.2,0.9-0.3,1.4-0.3c0.6,0,1,0.1,1.4,0.3c0.4,0.2,0.7,0.5,1,0.9c0.2,0.4,0.4,0.8,0.5,1.2c0.1,0.5,0.2,0.9,0.1,1.4h-5.3
	C98.7,123.1,98.7,123.4,98.8,123.7z M103,121.2c-0.1-0.3-0.2-0.6-0.4-0.8c-0.2-0.2-0.4-0.4-0.7-0.5c-0.3-0.1-0.6-0.2-0.9-0.2
	c-0.3,0-0.7,0.1-0.9,0.2c-0.3,0.1-0.5,0.3-0.7,0.5c-0.2,0.2-0.3,0.5-0.4,0.8c-0.1,0.3-0.2,0.6-0.2,0.9h4.5
	C103.1,121.8,103.1,121.5,103,121.2z"/>
<path class="st1" d="M113.3,116.5c0.4,0,0.8,0,1.1,0.1c0.3,0.1,0.7,0.2,0.9,0.4c0.3,0.2,0.5,0.5,0.6,0.8s0.2,0.7,0.2,1.1
	c0,0.6-0.2,1.1-0.5,1.6c-0.3,0.4-0.8,0.7-1.4,0.8v0c0.3,0,0.6,0.1,0.8,0.2c0.2,0.1,0.4,0.3,0.5,0.5s0.2,0.4,0.3,0.6
	c0.1,0.2,0.1,0.5,0.1,0.8c0,0.2,0,0.4,0,0.6c0,0.2,0,0.5,0.1,0.7c0,0.2,0.1,0.5,0.1,0.7c0.1,0.2,0.1,0.4,0.2,0.5h-1
	c-0.1-0.1-0.1-0.2-0.1-0.3c0-0.1-0.1-0.3-0.1-0.4c0-0.1,0-0.3,0-0.4c0-0.1,0-0.2,0-0.3c0-0.3,0-0.7-0.1-1c0-0.3-0.1-0.6-0.3-0.9
	c-0.1-0.3-0.3-0.5-0.6-0.6c-0.2-0.2-0.6-0.2-1-0.2h-3.4v4.2H109v-9.5H113.3z M113.2,121c0.3,0,0.5,0,0.8-0.1
	c0.2-0.1,0.5-0.2,0.7-0.4c0.2-0.2,0.3-0.4,0.4-0.6c0.1-0.2,0.2-0.5,0.2-0.8c0-0.6-0.2-1-0.5-1.4c-0.3-0.3-0.8-0.5-1.5-0.5h-3.4v3.7
	H113.2z"/>
<path class="st1" d="M118.3,123.7c0.1,0.3,0.2,0.6,0.4,0.9c0.2,0.3,0.4,0.5,0.7,0.6c0.3,0.2,0.6,0.3,1,0.3c0.6,0,1.1-0.2,1.4-0.5
	c0.3-0.3,0.6-0.7,0.7-1.3h0.8c-0.2,0.8-0.5,1.4-1,1.8c-0.5,0.4-1.1,0.6-2,0.6c-0.5,0-1-0.1-1.4-0.3c-0.4-0.2-0.7-0.5-1-0.8
	c-0.2-0.3-0.4-0.7-0.5-1.2c-0.1-0.4-0.2-0.9-0.2-1.4c0-0.5,0.1-0.9,0.2-1.3c0.1-0.4,0.3-0.8,0.5-1.2c0.2-0.3,0.6-0.6,1-0.8
	c0.4-0.2,0.9-0.3,1.4-0.3c0.5,0,1,0.1,1.4,0.3c0.4,0.2,0.7,0.5,0.9,0.9c0.2,0.4,0.4,0.8,0.5,1.2c0.1,0.5,0.2,0.9,0.1,1.4h-5.3
	C118.2,123.1,118.2,123.4,118.3,123.7z M122.4,121.2c-0.1-0.3-0.2-0.6-0.4-0.8c-0.2-0.2-0.4-0.4-0.7-0.5c-0.3-0.1-0.6-0.2-0.9-0.2
	c-0.3,0-0.6,0.1-0.9,0.2c-0.3,0.1-0.5,0.3-0.7,0.5c-0.2,0.2-0.3,0.5-0.4,0.8c-0.1,0.3-0.2,0.6-0.2,0.9h4.4
	C122.6,121.8,122.5,121.5,122.4,121.2z"/>
<path class="st1" d="M128.5,120.5c-0.1-0.2-0.2-0.3-0.4-0.5c-0.2-0.1-0.4-0.2-0.6-0.3c-0.2-0.1-0.4-0.1-0.7-0.1
	c-0.2,0-0.4,0-0.6,0.1c-0.2,0-0.4,0.1-0.5,0.2c-0.2,0.1-0.3,0.2-0.4,0.4c-0.1,0.2-0.1,0.3-0.1,0.6c0,0.2,0,0.3,0.1,0.5
	c0.1,0.1,0.2,0.2,0.4,0.3c0.1,0.1,0.3,0.2,0.5,0.2c0.2,0.1,0.3,0.1,0.5,0.1l1.1,0.3c0.2,0,0.5,0.1,0.7,0.2c0.2,0.1,0.4,0.2,0.6,0.4
	c0.2,0.2,0.3,0.3,0.4,0.6c0.1,0.2,0.2,0.5,0.2,0.8c0,0.4-0.1,0.7-0.3,0.9c-0.2,0.3-0.4,0.5-0.6,0.6c-0.3,0.2-0.6,0.3-0.9,0.4
	c-0.3,0.1-0.7,0.1-1,0.1c-0.8,0-1.5-0.2-2-0.6c-0.5-0.4-0.8-1-0.9-1.8h0.8c0,0.6,0.2,1,0.6,1.3c0.4,0.3,0.8,0.4,1.4,0.4
	c0.2,0,0.4,0,0.6-0.1c0.2,0,0.4-0.1,0.6-0.2c0.2-0.1,0.3-0.2,0.5-0.4c0.1-0.2,0.2-0.4,0.2-0.6c0-0.2,0-0.4-0.1-0.5
	c-0.1-0.1-0.2-0.3-0.3-0.3c-0.1-0.1-0.3-0.2-0.5-0.2c-0.2-0.1-0.4-0.1-0.6-0.2l-1.1-0.2c-0.3-0.1-0.5-0.2-0.8-0.2
	c-0.2-0.1-0.4-0.2-0.6-0.3c-0.2-0.1-0.3-0.3-0.4-0.5c-0.1-0.2-0.1-0.4-0.1-0.7c0-0.3,0.1-0.6,0.2-0.9c0.2-0.2,0.4-0.4,0.6-0.6
	c0.2-0.2,0.5-0.3,0.8-0.3c0.3-0.1,0.6-0.1,0.9-0.1c0.3,0,0.7,0,1,0.1c0.3,0.1,0.6,0.2,0.8,0.4c0.2,0.2,0.4,0.4,0.5,0.7
	c0.1,0.3,0.2,0.6,0.2,1h-0.8C128.6,120.9,128.6,120.7,128.5,120.5z"/>
<path class="st1" d="M135.2,119.2c0.4,0.2,0.7,0.5,1,0.8c0.3,0.3,0.5,0.7,0.6,1.1c0.1,0.4,0.2,0.9,0.2,1.4c0,0.5-0.1,1-0.2,1.4
	c-0.1,0.4-0.4,0.8-0.6,1.1c-0.3,0.3-0.6,0.6-1,0.8c-0.4,0.2-0.9,0.3-1.4,0.3c-0.5,0-1-0.1-1.4-0.3c-0.4-0.2-0.7-0.4-1-0.8
	c-0.3-0.3-0.5-0.7-0.6-1.1s-0.2-0.9-0.2-1.4c0-0.5,0.1-1,0.2-1.4c0.1-0.4,0.3-0.8,0.6-1.1c0.3-0.3,0.6-0.6,1-0.8
	c0.4-0.2,0.9-0.3,1.4-0.3C134.3,119,134.8,119.1,135.2,119.2z M132.8,119.9c-0.3,0.2-0.6,0.4-0.7,0.7c-0.2,0.3-0.3,0.6-0.5,0.9
	s-0.2,0.7-0.2,1.1s0.1,0.7,0.2,1.1c0.1,0.3,0.3,0.7,0.5,0.9c0.2,0.3,0.4,0.5,0.7,0.7c0.3,0.2,0.7,0.3,1,0.3s0.7-0.1,1-0.3
	c0.3-0.2,0.6-0.4,0.8-0.7c0.2-0.3,0.3-0.6,0.5-0.9c0.1-0.3,0.2-0.7,0.2-1.1s-0.1-0.7-0.2-1.1c-0.1-0.3-0.3-0.7-0.5-0.9
	c-0.2-0.3-0.4-0.5-0.8-0.7s-0.6-0.3-1-0.3S133.1,119.7,132.8,119.9z"/>
<path class="st1" d="M143.1,126v-1.2h0c-0.2,0.5-0.5,0.8-1,1.1c-0.4,0.2-0.9,0.4-1.4,0.4c-0.4,0-0.8-0.1-1.1-0.2
	c-0.3-0.1-0.6-0.3-0.7-0.5c-0.2-0.2-0.3-0.5-0.4-0.8c-0.1-0.3-0.1-0.7-0.1-1.1v-4.4h0.8v4.5c0,0.6,0.2,1.1,0.4,1.4
	c0.3,0.3,0.7,0.5,1.4,0.5c0.4,0,0.7-0.1,0.9-0.2c0.3-0.2,0.5-0.4,0.6-0.6c0.2-0.3,0.3-0.6,0.4-0.9c0.1-0.3,0.1-0.7,0.1-1v-3.6h0.8
	v6.8H143.1z"/>
<path class="st1" d="M146.2,119.2v1.6h0c0.2-0.6,0.5-1,1-1.3c0.4-0.3,1-0.4,1.6-0.4v0.8c-0.4,0-0.7,0-1,0.2
	c-0.3,0.1-0.6,0.3-0.8,0.5c-0.2,0.2-0.4,0.5-0.5,0.8c-0.1,0.3-0.2,0.6-0.2,1v3.6h-0.8v-6.8H146.2z"/>
<path class="st1" d="M153.5,120.1c-0.3-0.3-0.7-0.4-1.3-0.4c-0.4,0-0.7,0.1-1,0.3s-0.6,0.4-0.7,0.7c-0.2,0.3-0.3,0.6-0.5,0.9
	s-0.2,0.7-0.2,1.1s0.1,0.7,0.2,1.1c0.1,0.3,0.3,0.7,0.5,0.9c0.2,0.3,0.4,0.5,0.7,0.7c0.3,0.2,0.7,0.3,1,0.3c0.3,0,0.5,0,0.7-0.1
	c0.2-0.1,0.4-0.2,0.6-0.4c0.2-0.2,0.3-0.4,0.4-0.6c0.1-0.2,0.2-0.5,0.2-0.8h0.8c-0.1,0.8-0.4,1.5-0.9,1.9c-0.5,0.5-1.1,0.7-1.9,0.7
	c-0.5,0-1-0.1-1.4-0.3c-0.4-0.2-0.7-0.4-1-0.8c-0.3-0.3-0.5-0.7-0.6-1.1s-0.2-0.9-0.2-1.4c0-0.5,0.1-1,0.2-1.4
	c0.1-0.4,0.3-0.8,0.6-1.1c0.3-0.3,0.6-0.6,1-0.8c0.4-0.2,0.9-0.3,1.4-0.3c0.7,0,1.4,0.2,1.9,0.6c0.5,0.4,0.8,1,0.9,1.8h-0.8
	C154.1,120.8,153.9,120.4,153.5,120.1z"/>
<path class="st1" d="M156.9,123.7c0.1,0.3,0.2,0.6,0.4,0.9c0.2,0.3,0.4,0.5,0.7,0.6c0.3,0.2,0.6,0.3,1,0.3c0.6,0,1.1-0.2,1.4-0.5
	c0.3-0.3,0.6-0.7,0.7-1.3h0.8c-0.2,0.8-0.5,1.4-1,1.8c-0.5,0.4-1.1,0.6-2,0.6c-0.5,0-1-0.1-1.4-0.3c-0.4-0.2-0.7-0.5-1-0.8
	c-0.2-0.3-0.4-0.7-0.6-1.2c-0.1-0.4-0.2-0.9-0.2-1.4c0-0.5,0.1-0.9,0.2-1.3s0.3-0.8,0.6-1.2c0.2-0.3,0.6-0.6,1-0.8
	c0.4-0.2,0.9-0.3,1.4-0.3c0.5,0,1,0.1,1.4,0.3c0.4,0.2,0.7,0.5,0.9,0.9c0.2,0.4,0.4,0.8,0.5,1.2c0.1,0.5,0.2,0.9,0.1,1.4h-5.3
	C156.7,123.1,156.8,123.4,156.9,123.7z M161,121.2c-0.1-0.3-0.2-0.6-0.4-0.8c-0.2-0.2-0.4-0.4-0.7-0.5c-0.3-0.1-0.6-0.2-0.9-0.2
	c-0.3,0-0.7,0.1-0.9,0.2c-0.3,0.1-0.5,0.3-0.7,0.5c-0.2,0.2-0.3,0.5-0.4,0.8c-0.1,0.3-0.2,0.6-0.2,0.9h4.4
	C161.2,121.8,161.1,121.5,161,121.2z"/>
<g>
	<path class="st2" d="M48.3,9.7C48.3,9.7,48.3,9.7,48.3,9.7c-0.5,0.1-1,0.1-1.6,0.1c0,0,0-0.1,0-0.1C47.2,9.7,47.7,9.7,48.3,9.7z"/>
	<path class="st3" d="M86.4,39.9c0.9,0.4,1.2,1.2,1.4,2.1c0.2,1-0.3,1.6-1.1,1.9c-0.6,0.2-1.1-0.1-1.4-0.5c-0.6-0.6-0.8-1.8-0.6-2.7
		c-1-0.4-1.1-1.3-1.3-2.1c-0.2-0.6,0-1.2,0.6-1.6c0.5-0.3,1.1-0.4,1.6,0c0.1,0.1,0.3,0.2,0.4,0.3C86.4,38,86.8,38.9,86.4,39.9z"/>
	<path class="st4" d="M57.5,13.3c-0.1,0.3-0.2,0.6-0.3,0.9c-0.3,0.7-1,1.1-1.8,0.9c-0.7-0.2-1.2-0.9-1-1.7c0.1-0.4,0.2-0.8,0.3-1.2
		c0,0,0,0,0-0.1c0.1-0.3,0.4-0.6,0.7-0.8c0.6-0.2,1.1-0.9,1.9-0.6c0.3,0.1,0.6,0.1,0.9,0.2c0.6,0.2,0.9,0.7,0.8,1.4
		c-0.1,0.6-0.5,1-1.2,1C57.8,13.3,57.6,13.3,57.5,13.3z"/>
	<path class="st4" d="M68.6,18.2c0.1-0.3,0.2-0.9,0.5-1.4c0.3-0.5,0.7-0.8,1.3-0.7c0.6,0.1,1,0.4,1.3,0.9c0.1,0.2,0.2,0.4,0.4,0.6
		c0.5,0.4,0.7,1.1,0.4,1.7c-0.3,0.6-0.9,0.9-1.7,0.7c-0.2-0.1-0.4,0-0.6,0C69.4,20.1,68.5,19.3,68.6,18.2z"/>
	<path class="st5" d="M114.9,64.5c-0.5,0.6-1.1,0.7-1.8,0.6c-0.2-0.2-0.4-0.3-0.6-0.5c-0.3-0.4-0.6-0.8-0.3-1.4
		c0.1-0.4,0.2-0.7,0.3-1c0.3-0.8,1-1.1,1.8-0.9c0.7,0.2,1.2,0.9,1,1.7c-0.1,0.3-0.2,0.6-0.2,0.9c0,0.2,0,0.4-0.1,0.6l0,0
		C115.1,64.4,115,64.4,114.9,64.5L114.9,64.5z"/>
	<path class="st6" d="M84.9,34.2c0,0.8-0.4,1.4-1.1,1.6c-0.6,0.2-1.3-0.2-1.6-0.8c-0.2-0.4-0.4-0.8-0.5-1.2
		c-0.2-0.8,0.2-1.5,0.9-1.8c0.7-0.2,1.5,0.1,1.8,0.8c0.1,0.3,0.3,0.6,0.4,0.9C84.9,33.9,84.9,34.1,84.9,34.2z"/>
	<path class="st6" d="M90,46.9c0,0.7-0.4,1.2-1.1,1.4c-0.6,0.2-1.3-0.1-1.6-0.6c-0.2-0.3-0.4-0.7-0.6-1c-0.4-0.7-0.1-1.6,0.6-1.9
		c0.7-0.4,1.5-0.1,2,0.6C89.8,46,90,46.5,90,46.9z"/>
	<path class="st6" d="M82.7,29.8c0,0.7-0.4,1.3-1,1.5c-0.6,0.2-1.2,0-1.6-0.6c-0.2-0.3-0.4-0.6-0.6-0.9c-0.4-0.7-0.2-1.5,0.5-1.9
		c0.7-0.4,1.5-0.2,2,0.5c0.2,0.3,0.4,0.6,0.6,1C82.6,29.5,82.6,29.7,82.7,29.8z"/>
	<path class="st6" d="M90.7,48.8c0.5,0,0.9,0.1,1.1,0.5c0.2,0.3,0.5,0.6,0.7,0.9c0.5,0.7,0.3,1.5-0.3,2c-0.6,0.4-1.4,0.3-2-0.3
		c-0.3-0.3-0.5-0.7-0.7-1.1C89,49.9,89.7,48.8,90.7,48.8z"/>
	<path class="st6" d="M96.1,54.7c0,1.1-1.1,1.8-2,1.3c-0.6-0.3-1.1-0.8-1.4-1.4c-0.2-0.5-0.1-1,0.2-1.4c0.3-0.4,0.8-0.5,1.3-0.5
		c0.1,0,0.3,0,0.4,0.1c0.5,0.5,0.9,0.9,1.4,1.4C96.1,54.4,96.1,54.6,96.1,54.7z"/>
	<path class="st7" d="M79.9,25.7c-0.1,0.6-0.3,1-0.9,1.3c-0.5,0.2-1.1,0.2-1.5-0.2c-0.3-0.3-0.6-0.7-0.9-1.1
		c-0.4-0.6-0.2-1.4,0.4-1.8c0.6-0.4,1.4-0.3,1.9,0.2c0.2,0.2,0.5,0.5,0.6,0.8C79.6,25.1,79.7,25.4,79.9,25.7z"/>
	<path class="st8" d="M101.5,52.8c-0.1,0.3-0.2,0.9-0.4,1.4c-0.2,0.6-1,0.8-1.5,0.7c-0.7-0.2-1.2-0.8-1-1.5c0.1-0.5,0.3-1,0.5-1.4
		c0.2-0.5,0.9-0.8,1.5-0.7C101.1,51.4,101.5,52,101.5,52.8z"/>
	<path class="st8" d="M113.7,58.5c0.1-0.3,0.2-0.9,0.5-1.4c0.3-0.6,0.9-0.8,1.5-0.6c0.5,0.2,1,0.8,0.9,1.3c-0.1,0.5-0.2,1-0.3,1.4
		c-0.2,0.6-0.9,0.9-1.5,0.8C114.1,60,113.7,59.4,113.7,58.5z"/>
	<path class="st7" d="M98.4,59.4c-0.1,0-0.4-0.1-0.6-0.2c-0.4-0.3-0.7-0.5-1.1-0.9c-0.5-0.5-0.5-1.3,0-1.8c0.4-0.5,1.2-0.6,1.7-0.2
		c0.4,0.3,0.8,0.6,1.1,0.9c0.4,0.4,0.4,1,0.2,1.5C99.5,59.1,99.1,59.3,98.4,59.4z"/>
	<path class="st7" d="M72.9,21.3c0.1-0.6,0.3-1,0.8-1.2c0.5-0.2,0.9-0.2,1.4,0.1c0.4,0.3,0.7,0.6,1,1c0.4,0.5,0.4,1.3-0.1,1.8
		c-0.5,0.5-1.3,0.5-1.8,0.1c-0.3-0.2-0.6-0.5-0.8-0.8C73.2,21.9,73.1,21.6,72.9,21.3z"/>
	<path class="st9" d="M56,17.7c-0.1,0.3-0.2,0.9-0.5,1.4c-0.2,0.5-0.9,0.7-1.5,0.6c-0.5-0.1-1-0.6-0.9-1.2c0.1-0.6,0.2-1.1,0.4-1.6
		c0.2-0.5,0.9-0.9,1.4-0.8C55.4,16.3,56,16.7,56,17.7z"/>
	<path class="st7" d="M104.1,60.7c0,1-0.9,1.6-1.7,1.2c-0.4-0.2-0.9-0.4-1.2-0.7c-0.6-0.4-0.7-1.2-0.3-1.7c0.4-0.5,1.1-0.7,1.7-0.4
		c0.4,0.2,0.7,0.4,1,0.6C103.9,59.9,104.1,60.3,104.1,60.7z"/>
	<path class="st4" d="M67.1,17.2c-0.6,0-1-0.3-1.4-0.6c-0.2-0.1-0.5-0.4-0.6-0.6c-0.3-0.6-0.1-1.1,0.4-1.6c0.4-0.4,0.9-0.4,1.5,0
		c0.3,0.2,0.6,0.3,0.9,0.5c0.5,0.3,0.7,0.9,0.5,1.5C68.2,16.9,67.7,17.2,67.1,17.2z"/>
	<path class="st10" d="M70.2,22.6c-0.1,0.3-0.2,0.9-0.4,1.3c-0.2,0.6-0.9,0.8-1.4,0.7c-0.6-0.1-1-0.7-0.9-1.3c0-0.4,0.1-0.9,0.2-1.3
		c0.2-0.7,0.8-1,1.5-0.9C69.7,21.2,70.2,21.8,70.2,22.6z"/>
	<path class="st7" d="M108.5,62.9c0.1,0.7-0.9,1.7-1.9,1.2c-0.3-0.2-0.6-0.3-0.9-0.4c-0.8-0.4-0.9-1.4-0.3-2
		c0.4-0.4,0.9-0.4,1.3-0.3c0.4,0.1,0.7,0.3,1,0.4C108.3,62,108.5,62.4,108.5,62.9z"/>
	<path class="st11" d="M62.5,15c-0.5-0.2-1.2-0.3-1.7-0.8c-0.4-0.5-0.5-1-0.1-1.5c0.3-0.5,0.8-0.7,1.5-0.5c0.4,0.1,0.8,0.3,1.2,0.5
		c0.5,0.3,0.7,0.9,0.5,1.4C63.6,14.7,63.2,15,62.5,15z"/>
	<path class="st12" d="M114.9,64.5L114.9,64.5c0.1-0.1,0.1-0.1,0.2-0.1l0,0c0.7-0.3,1.4-0.2,2.1,0c0.7,0.2,1,0.7,0.9,1.4
		c-0.1,0.6-0.6,1-1.3,1c-0.3,0-0.7-0.1-1-0.1c-0.9-0.1-1.3-0.9-1-1.7C114.9,64.7,114.9,64.6,114.9,64.5z"/>
	<path class="st8" d="M52.1,23.2c0-0.3,0.1-0.7,0.2-1.1c0.2-0.7,0.8-1,1.4-0.9c0.6,0.1,1,0.7,1,1.3c-0.1,0.4-0.1,0.8-0.3,1.2
		c-0.2,0.5-0.7,0.8-1.3,0.7C52.4,24.4,52.1,23.9,52.1,23.2z"/>
	<path class="st9" d="M117.5,53.1c0,0.3-0.1,0.7-0.2,1.1c-0.1,0.5-0.5,0.8-1,0.9c-0.7,0.1-1.4-0.5-1.3-1.2c0-0.5,0.2-1.1,0.3-1.6
		c0.2-0.5,0.8-0.7,1.3-0.6C117.2,51.9,117.6,52.4,117.5,53.1z"/>
	<path class="st9" d="M52.3,9.9c0.3,0,0.6,0.1,0.9,0.1c0.7,0.2,1,0.7,0.9,1.4c-0.1,0.6-0.7,1-1.3,0.9c-0.3,0-0.6-0.1-0.8-0.1
		c-0.8-0.1-1.2-0.6-1.2-1.3c0.1-0.7,0.6-1.2,1.4-1.1C52.3,9.9,52.3,9.9,52.3,9.9C52.3,9.9,52.3,9.9,52.3,9.9z"/>
	<path class="st9" d="M102.6,47.8c-0.1,0.4-0.1,0.8-0.2,1.2c-0.2,0.6-0.8,0.9-1.4,0.8c-0.6-0.1-1-0.7-0.9-1.3
		c0.1-0.5,0.2-0.9,0.3-1.4c0.2-0.5,0.8-0.8,1.3-0.6C102.2,46.7,102.6,47.2,102.6,47.8z"/>
	<path class="st12" d="M121.5,64.6c0.1,0,0.3,0,0.4,0c0.7,0,1.2,0.4,1.2,1c0,0.7-0.3,1.1-1.1,1.2c-0.4,0-0.8,0.1-1.1,0
		c-0.7-0.1-1-0.5-1-1.2c0-0.6,0.4-1,1.1-1.1C121.2,64.6,121.3,64.6,121.5,64.6C121.5,64.6,121.5,64.6,121.5,64.6z"/>
	<path class="st12" d="M126.2,66.6c-0.9,0-1.3-0.4-1.4-1c-0.1-0.6,0.3-1.1,1-1.2c0.4-0.1,0.8-0.1,1.2-0.1c0.6,0,1,0.4,1.1,1
		c0,0.5-0.3,1.1-0.9,1.2C126.8,66.5,126.4,66.5,126.2,66.6z"/>
	<path class="st10" d="M46.7,9.8c0.5,0,1.1,0,1.6,0c0.5,0.2,0.8,0.5,0.8,1.1c0,0.6-0.4,1.1-1.1,1.2c-0.3,0-0.7,0-1,0
		c-0.6,0-1-0.3-1.1-0.8c-0.2-0.6,0-1.1,0.6-1.4C46.5,9.9,46.6,9.8,46.7,9.8z"/>
	<path class="st8" d="M44.1,11.2c0,0.5-0.3,0.9-0.8,1c-0.4,0.1-0.8,0.2-1.2,0.2c-0.5,0-1-0.4-1.1-0.9c-0.1-0.5,0.2-1.1,0.7-1.2
		c0.5-0.1,0.9-0.2,1.4-0.2C43.7,10.1,44.1,10.6,44.1,11.2z"/>
	<path class="st12" d="M112.2,63.2c-0.3,0.5,0,1,0.3,1.4c0.2,0.2,0.4,0.3,0.6,0.5c-0.4,0.6-0.8,0.7-1.4,0.6c-0.4-0.1-0.7-0.2-1-0.3
		c-0.7-0.2-1-0.8-0.8-1.5c0.2-0.6,0.7-0.9,1.4-0.9C111.6,63.1,111.9,63.2,112.2,63.2z"/>
	<path class="st13" d="M68,26.3c0.7,0,1.2,0.5,1.1,1.2c0,0.4-0.1,0.8-0.2,1.1c-0.2,0.6-0.6,0.9-1.2,0.8c-0.5-0.1-1-0.5-1-1.1
		c0-0.4,0-0.8,0.1-1.2C67,26.6,67.5,26.3,68,26.3z"/>
	<path class="st12" d="M131.7,63.3c0.7,0,1.1,0.3,1.3,0.8c0.1,0.5-0.1,1-0.6,1.2c-0.5,0.2-1,0.3-1.4,0.4c-0.5,0.1-1-0.3-1.1-0.8
		c-0.1-0.5,0.1-1,0.6-1.2C130.9,63.5,131.4,63.4,131.7,63.3z"/>
	<path class="st13" d="M37.3,13.4c-0.7,0-1.1-0.3-1.2-0.8c-0.1-0.5,0.1-1,0.6-1.2c0.4-0.2,0.9-0.3,1.3-0.3c0.5-0.1,1,0.2,1.1,0.7
		c0.1,0.5-0.1,1.1-0.6,1.3C38,13.3,37.6,13.4,37.3,13.4z"/>
	<path class="st13" d="M53.7,27.5c-0.1,0.3-0.1,0.7-0.2,1.1c-0.2,0.6-0.6,0.9-1.1,0.8c-0.5-0.1-0.9-0.6-0.9-1.2c0-0.3,0-0.7,0.1-1
		c0.1-0.6,0.6-1,1.1-0.9C53.2,26.3,53.7,26.8,53.7,27.5z"/>
	<path class="st11" d="M135.7,64.2c-0.6,0-0.8-0.3-1-0.6c-0.2-0.4-0.2-0.7,0.1-1c0.5-0.6,1.2-0.8,1.9-0.8c0.4,0,0.7,0.2,0.8,0.6
		c0.2,0.4,0.2,0.8-0.1,1.1C136.9,63.9,136.3,64,135.7,64.2z"/>
	<path class="st11" d="M118.3,48c-0.1,0.4-0.1,0.8-0.2,1.1c-0.1,0.6-0.6,0.9-1.1,0.8c-0.5,0-1-0.4-0.9-0.9c0-0.5,0.1-1.1,0.3-1.6
		c0.1-0.4,0.5-0.5,0.9-0.5c0.4,0,0.7,0.2,0.9,0.5C118.2,47.7,118.2,47.9,118.3,48z"/>
	<path class="st5" d="M34.3,13.7c0,0.3-0.2,0.7-0.6,0.9c-0.3,0.2-0.7,0.3-1,0.4c-0.6,0.2-1.1-0.1-1.3-0.6c-0.2-0.5,0-1.1,0.5-1.3
		c0.3-0.2,0.6-0.3,1-0.4C33.6,12.5,34.3,13,34.3,13.7z"/>
	<path class="st11" d="M142.1,60.5c0,0.3-0.1,0.6-0.5,0.8c-0.3,0.2-0.6,0.4-0.9,0.5c-0.5,0.3-1,0.1-1.3-0.3c-0.3-0.4-0.2-1,0.2-1.4
		c0.3-0.3,0.7-0.5,1.1-0.6C141.4,59.3,142.1,59.8,142.1,60.5z"/>
	<path class="st4" d="M25.3,18.1c0.1-0.1,0.2-0.2,0.2-0.3c0.3-0.6,0.5-0.8,1.2-0.7c0.1,0,0.2,0,0.2,0l0,0c0.1,0.2,0.2,0.4,0.5,0.4
		l0,0c0,0,0,0,0,0c0.2,0.7-0.1,1.3-0.4,1.9c-0.2,0.4-0.5,0.7-1,0.6c-0.2,0-0.4-0.2-0.6-0.4c-0.2-0.3-0.3-0.6-0.2-1
		C25.3,18.4,25.3,18.3,25.3,18.1z"/>
	<path class="st5" d="M27,17c0-0.1,0-0.3,0-0.4c-0.1-0.5,0.1-0.8,0.5-1.1c0.3-0.1,0.5-0.3,0.8-0.5c0.5-0.3,1.1-0.1,1.4,0.3
		c0.3,0.4,0.2,1.1-0.3,1.4c-0.6,0.4-1.1,0.8-1.9,0.7l0,0C27.4,17.2,27.3,17,27,17L27,17z"/>
	<path class="st5" d="M143.6,58.9c-0.1,0.1-0.2,0.3-0.3,0.4c-0.3,0.3-0.7,0.4-1.1,0.3c-0.4-0.1-0.7-0.5-0.7-0.9
		c0-0.6,0.2-1.2,0.5-1.6c0.5-0.7,1.2-0.5,1.6,0.3C143.7,57.8,143.6,58.3,143.6,58.9z"/>
	<path class="st11" d="M103.3,42.9c0,0.3-0.1,0.7-0.1,1c-0.1,0.6-0.6,1-1.2,0.9c-0.5-0.1-0.9-0.6-0.8-1.2c0.1-0.3,0.1-0.7,0.2-1
		c0.2-0.5,0.6-0.8,1.1-0.7C103,41.9,103.3,42.4,103.3,42.9z"/>
	<path class="st13" d="M130.6,61.9c-0.1,0.3-0.2,0.8-0.4,1.3c-0.2,0.4-0.7,0.6-1.1,0.4c-0.4-0.2-0.7-0.6-0.6-1
		c0.1-0.4,0.2-0.9,0.4-1.3c0.2-0.4,0.7-0.6,1.1-0.5C130.3,60.9,130.6,61.3,130.6,61.9z"/>
	<path class="st11" d="M143.6,58.9c0-0.5,0.1-1,0.1-1.5c0.3-0.2,0.5-0.3,0.8-0.5c0.5-0.4,0.9-0.3,1.3,0c0.4,0.4,0.4,0.9,0,1.3
		c-0.2,0.3-0.5,0.5-0.8,0.7C144.5,59.3,144.2,59.3,143.6,58.9z"/>
	<path class="st11" d="M148,55.6c-0.8,0-1.3-0.8-0.9-1.4c0.3-0.4,0.6-0.8,1-1.1c0.3-0.3,0.6-0.3,1,0c0.3,0.2,0.5,0.7,0.3,1
		c-0.3,0.5-0.6,0.9-1,1.3C148.3,55.6,148.1,55.6,148,55.6z"/>
	<path class="st11" d="M39.1,17.1c-0.6,0-1-0.5-0.9-1.1c0.1-0.4,0.2-0.8,0.4-1.2c0.2-0.4,0.7-0.6,1-0.5c0.5,0.2,0.8,0.5,0.7,1
		c-0.1,0.4-0.3,0.9-0.5,1.3C39.7,17,39.4,17.1,39.1,17.1z"/>
	<path class="st5" d="M66.6,32.8c0-0.2,0-0.4,0-0.6c0.1-0.5,0.5-0.8,1-0.8c0.5,0,0.8,0.4,0.9,0.8c0,0.4,0,0.9-0.1,1.3
		c-0.1,0.4-0.5,0.7-0.9,0.7c-0.4,0-0.8-0.3-0.8-0.8C66.6,33.3,66.6,33.1,66.6,32.8C66.6,32.8,66.6,32.8,66.6,32.8z"/>
	<path class="st14" d="M22.1,22.4c0,0.5-0.9,1.6-1.3,1.7c-0.3,0.1-0.6,0-0.9-0.2c-0.3-0.3-0.4-0.6-0.2-1c0.3-0.4,0.6-0.9,1-1.2
		c0.2-0.2,0.6-0.2,0.8-0.1C21.9,21.7,22.1,22,22.1,22.4z"/>
	<path class="st15" d="M118.7,43.3c0,0.3,0,0.6-0.1,0.8c-0.1,0.5-0.5,0.8-1,0.8c-0.5,0-0.8-0.4-0.8-0.9c0-0.4,0.1-0.8,0.1-1.2
		c0.1-0.5,0.5-0.7,1-0.7c0.5,0,0.8,0.4,0.8,0.9C118.7,43.1,118.7,43.2,118.7,43.3z"/>
	<path class="st9" d="M152.1,49.8c-0.2,0.5-0.4,1.1-0.9,1.5c-0.2,0.2-0.7,0.2-1,0c-0.3-0.2-0.5-0.7-0.4-1c0.2-0.4,0.4-0.9,0.7-1.3
		c0.2-0.3,0.6-0.4,1-0.3C151.9,49,152.2,49.3,152.1,49.8z"/>
	<path class="st16" d="M25.3,18.1c0,0.2,0,0.3,0,0.5c-0.2,0.4-0.1,0.7,0.2,1c-0.1,0.1-0.3,0.2-0.4,0.3c-0.2,0.1-0.3,0.3-0.4,0.4
		c-0.4,0.3-0.9,0.3-1.3-0.1c-0.3-0.3-0.4-0.9-0.1-1.3c0.3-0.3,0.7-0.7,1.1-0.9C24.6,17.7,25,17.8,25.3,18.1z"/>
	<path class="st5" d="M51.1,32.9c0-0.3,0-0.5,0-0.7c0.1-0.5,0.5-0.8,1-0.7c0.5,0,0.8,0.4,0.8,0.9c0,0.4,0,0.8-0.1,1.2
		c-0.1,0.5-0.5,0.8-0.9,0.7c-0.5,0-0.8-0.4-0.8-0.9C51.1,33.2,51.1,33,51.1,32.9z"/>
	<path class="st14" d="M18.3,25.8c0.7,0,1.2,0.5,1,1c-0.1,0.4-0.3,0.8-0.6,1.2c-0.2,0.3-0.6,0.4-1,0.3c-0.4-0.2-0.6-0.5-0.5-0.9
		c0.2-0.5,0.4-1,0.7-1.4C17.9,25.8,18.2,25.8,18.3,25.8z"/>
	<path class="st10" d="M23.9,23.6c0.1-0.3,0.1-0.7,0.2-1c0.1-0.4,0.6-0.7,1-0.6c0.4,0.1,0.7,0.5,0.6,1c-0.1,0.4-0.2,0.8-0.3,1.1
		c-0.2,0.4-0.6,0.6-1,0.5C24.1,24.5,23.8,24.2,23.9,23.6z"/>
	<path class="st10" d="M131.8,57.1c-0.1,0.3-0.1,0.7-0.3,1.1c-0.2,0.4-0.6,0.7-1,0.5c-0.4-0.1-0.7-0.6-0.6-1
		c0.1-0.4,0.2-0.7,0.3-1.1c0.1-0.4,0.5-0.7,1-0.6C131.6,56.1,131.9,56.4,131.8,57.1z"/>
	<path class="st17" d="M144.9,53.1c-0.1,0.2-0.1,0.6-0.2,1c-0.1,0.5-0.6,0.7-1,0.6c-0.5-0.1-0.7-0.5-0.6-1c0.1-0.3,0.1-0.7,0.2-1
		c0.1-0.5,0.5-0.7,1-0.6C144.7,52,145,52.4,144.9,53.1z"/>
	<path class="st9" d="M153.9,45.1c-0.1,0.3-0.2,0.8-0.4,1.3c-0.2,0.4-0.6,0.5-1,0.4c-0.4-0.1-0.6-0.5-0.6-0.9
		c0.1-0.4,0.2-0.9,0.4-1.3c0.2-0.4,0.6-0.5,1-0.4C153.7,44.3,153.9,44.6,153.9,45.1z"/>
	<path class="st14" d="M17.4,31.4c-0.1,0.3-0.2,0.7-0.4,1.2c-0.2,0.4-0.5,0.6-0.9,0.5c-0.4-0.1-0.7-0.5-0.6-0.9
		c0.1-0.5,0.2-0.9,0.4-1.3c0.1-0.3,0.5-0.5,0.9-0.4C17.2,30.5,17.4,30.8,17.4,31.4z"/>
	<path class="st8" d="M38.7,20.2c-0.1,0.3-0.2,0.8-0.4,1.2c-0.2,0.4-0.6,0.5-0.9,0.4c-0.3-0.1-0.6-0.5-0.6-0.9
		c0.1-0.4,0.2-0.9,0.3-1.3c0.1-0.4,0.6-0.5,0.9-0.5C38.5,19.3,38.8,19.6,38.7,20.2z"/>
	<path class="st17" d="M154.7,40.3c0,0.3,0,0.5-0.1,0.8c-0.1,0.5-0.4,0.8-0.9,0.8c-0.5,0-0.8-0.4-0.8-0.9c0-0.3,0-0.7,0.1-1
		c0.1-0.4,0.4-0.7,0.8-0.7c0.4,0,0.7,0.3,0.7,0.8C154.7,40.2,154.7,40.3,154.7,40.3z"/>
	<path class="st14" d="M16.4,36.7c0,0.2,0,0.4,0,0.6c-0.1,0.4-0.4,0.7-0.8,0.7c-0.4,0-0.7-0.3-0.8-0.7c0-0.3,0-0.7,0-1
		c0.1-0.5,0.4-0.8,0.9-0.8c0.4,0,0.7,0.4,0.7,0.9C16.5,36.4,16.5,36.5,16.4,36.7C16.4,36.7,16.4,36.7,16.4,36.7z"/>
	<path class="st15" d="M103.7,38.3c0,0.2,0,0.4-0.1,0.7c-0.1,0.4-0.5,0.6-0.8,0.6c-0.4,0-0.7-0.4-0.7-0.8c0-0.4,0.1-0.8,0.2-1.2
		c0.1-0.4,0.4-0.6,0.9-0.5c0.4,0.1,0.6,0.3,0.6,0.7C103.7,37.9,103.7,38.1,103.7,38.3z"/>
	<path class="st17" d="M153,35.1c0.1-0.2,0.2-0.4,0.3-0.6c0.3-0.3,0.9-0.2,1,0.2c0.2,0.5,0.2,1.1,0.2,1.6c0,0.4-0.4,0.6-0.7,0.6
		c-0.4,0-0.7-0.2-0.7-0.6C153.1,35.9,153,35.5,153,35.1z"/>
	<path class="st11" d="M132.7,52c-0.1,0.4-0.1,0.7-0.2,1.1c-0.1,0.4-0.4,0.7-0.8,0.6c-0.4,0-0.7-0.4-0.7-0.8c0-0.4,0.1-0.8,0.2-1.1
		c0.1-0.4,0.5-0.6,0.9-0.5C132.5,51.3,132.8,51.6,132.7,52z"/>
	<path class="st14" d="M16.6,42c0,0.5-0.2,0.9-0.6,0.9c-0.4,0.1-0.7-0.2-0.8-0.6c-0.1-0.3-0.1-0.7-0.1-1c0-0.4,0.3-0.7,0.6-0.8
		c0.4,0,0.8,0.2,0.8,0.6C16.6,41.4,16.6,41.7,16.6,42z"/>
	<path class="st4" d="M118.9,38.5c0,0.2,0,0.4,0,0.6c-0.1,0.4-0.4,0.6-0.7,0.6c-0.4,0-0.7-0.3-0.7-0.7c0-0.4,0-0.8,0.1-1.2
		c0.1-0.4,0.4-0.7,0.8-0.6c0.4,0,0.6,0.3,0.7,0.7C118.9,38.1,118.9,38.2,118.9,38.5z"/>
	<path class="st5" d="M23.1,28.4c0-0.3,0.1-0.6,0.1-0.8c0.1-0.4,0.4-0.6,0.8-0.6c0.4,0,0.7,0.4,0.7,0.8c0,0.4-0.1,0.8-0.2,1.2
		c-0.1,0.4-0.4,0.6-0.7,0.5c-0.4,0-0.6-0.3-0.6-0.7C23.1,28.7,23.1,28.6,23.1,28.4z"/>
	<path class="st11" d="M145.8,47.9c0,0.4-0.1,0.7-0.1,1c-0.1,0.5-0.5,0.7-0.8,0.6c-0.4-0.1-0.6-0.4-0.6-0.9c0-0.3,0.1-0.6,0.2-1
		c0.1-0.5,0.4-0.7,0.8-0.6C145.6,47.2,145.8,47.5,145.8,47.9z"/>
	<path class="st17" d="M153.7,31.1c-0.1,0.3-0.3,0.6-0.6,0.7c-0.3,0.1-0.7,0-0.8-0.3c-0.2-0.4-0.3-0.9-0.4-1.3
		c-0.1-0.3,0.2-0.6,0.5-0.7c0.3-0.1,0.7,0,0.8,0.2C153.4,30.2,153.6,30.7,153.7,31.1z"/>
	<path class="st5" d="M35.9,25.8c0-0.3,0.1-0.7,0.2-1c0.1-0.4,0.4-0.6,0.8-0.6c0.4,0.1,0.7,0.4,0.6,0.8c0,0.3-0.1,0.7-0.2,1
		c-0.1,0.4-0.5,0.6-0.8,0.6C36.1,26.5,35.9,26.2,35.9,25.8z"/>
	<path class="st5" d="M52.6,37.9c0,0.2,0,0.4,0,0.6c0,0.4-0.3,0.6-0.7,0.7c-0.4,0-0.7-0.2-0.7-0.6c0-0.4,0-0.8,0-1.2
		c0-0.4,0.3-0.7,0.8-0.7c0.4,0,0.7,0.2,0.7,0.6C52.6,37.5,52.6,37.7,52.6,37.9C52.6,37.9,52.6,37.9,52.6,37.9z"/>
	<path class="st14" d="M17.9,46.9c0,0.5-0.2,0.8-0.5,0.9c-0.4,0.1-0.6,0-0.8-0.4c-0.1-0.3-0.3-0.7-0.4-1c-0.1-0.6,0.3-1,0.9-0.9
		c0.1,0,0.3,0.1,0.3,0.2C17.6,46.1,17.7,46.6,17.9,46.9z"/>
	<path class="st5" d="M68.1,37.9c0,0.2,0,0.4,0,0.6c0,0.3-0.3,0.6-0.6,0.6c-0.4,0-0.7-0.2-0.8-0.5c-0.1-0.5-0.1-0.9,0-1.4
		c0-0.4,0.4-0.6,0.8-0.6c0.4,0,0.6,0.3,0.6,0.6C68.1,37.5,68.1,37.7,68.1,37.9C68.1,37.9,68.1,37.9,68.1,37.9z"/>
	<path class="st17" d="M150.7,24.9c0.1,0.1,0.3,0.2,0.5,0.3c0.2,0.3,0.4,0.6,0.5,0.9c0.2,0.4,0.1,0.7-0.2,0.9
		c-0.3,0.2-0.7,0.1-1-0.3c-0.2-0.3-0.4-0.6-0.5-0.9C149.7,25.4,150,24.9,150.7,24.9z"/>
	<path class="st14" d="M19,50c0.1,0.1,0.3,0.1,0.4,0.3c0.2,0.3,0.4,0.7,0.6,1.1c0.1,0.3,0,0.7-0.3,0.8c-0.3,0.1-0.6,0.1-0.8-0.2
		c-0.2-0.3-0.5-0.7-0.6-1.1C18,50.5,18.4,50,19,50z"/>
	<path class="st15" d="M133.3,47.3c0,0.3,0,0.5-0.1,0.7c-0.1,0.4-0.4,0.5-0.8,0.5c-0.3,0-0.6-0.3-0.6-0.6c0-0.4,0.1-0.7,0.1-1.1
		c0.1-0.4,0.4-0.6,0.7-0.5c0.4,0,0.6,0.3,0.6,0.7C133.3,47.1,133.3,47.2,133.3,47.3C133.3,47.3,133.3,47.3,133.3,47.3z"/>
	<path class="st17" d="M148.9,22.3c0,0.3-0.1,0.5-0.3,0.6c-0.2,0.1-0.5,0.1-0.7-0.1c-0.3-0.3-0.6-0.6-0.8-1
		c-0.2-0.3-0.1-0.6,0.2-0.8c0.3-0.2,0.6-0.2,0.8,0.1c0.3,0.3,0.5,0.6,0.7,0.9C148.9,22.1,148.9,22.2,148.9,22.3z"/>
	<path class="st14" d="M21.1,54.7c0.1-0.1,0.1-0.3,0.3-0.4c0.2-0.1,0.5-0.1,0.7,0c0.3,0.3,0.6,0.7,0.9,1.1c0.1,0.2,0.1,0.5-0.1,0.6
		c-0.2,0.2-0.5,0.3-0.6,0.1c-0.4-0.3-0.7-0.8-1.1-1.1C21.1,54.9,21.1,54.9,21.1,54.7z"/>
	<path class="st16" d="M22.8,33.2c0-0.2,0-0.4,0-0.6c0.1-0.3,0.3-0.5,0.6-0.5c0.3,0,0.6,0.2,0.6,0.5c0,0.4,0,0.9-0.1,1.3
		c0,0.3-0.3,0.4-0.6,0.4c-0.3,0-0.5-0.2-0.5-0.5C22.8,33.7,22.9,33.4,22.8,33.2C22.9,33.2,22.8,33.2,22.8,33.2z"/>
	<path class="st16" d="M35.5,30.3c0-0.1,0-0.3,0-0.5c0.1-0.4,0.3-0.5,0.7-0.5c0.3,0,0.6,0.3,0.6,0.6c0,0.3,0,0.7-0.1,1
		c-0.1,0.4-0.3,0.6-0.6,0.6c-0.4,0-0.6-0.3-0.6-0.7C35.5,30.7,35.5,30.6,35.5,30.3z"/>
	<path class="st13" d="M143.9,17.5c0.2,0.1,0.4,0.1,0.5,0.2c0.3,0.2,0.6,0.5,0.9,0.8c0.2,0.2,0.2,0.5,0,0.7
		c-0.2,0.2-0.5,0.3-0.7,0.1c-0.3-0.2-0.7-0.5-1-0.8c-0.2-0.2-0.2-0.4-0.1-0.6C143.5,17.7,143.7,17.6,143.9,17.5z"/>
	<path class="st16" d="M25.4,57.7c0.1,0,0.2,0,0.3,0.1c0.3,0.2,0.5,0.4,0.8,0.6c0.3,0.3,0.3,0.6,0.1,0.9c-0.2,0.3-0.6,0.3-0.9,0
		c-0.2-0.2-0.5-0.3-0.7-0.5c-0.2-0.2-0.3-0.4-0.2-0.7C24.8,57.8,25,57.7,25.4,57.7z"/>
	<path class="st15" d="M146.2,43.4c0,0.2,0,0.4,0,0.6c-0.1,0.3-0.3,0.5-0.6,0.5c-0.3,0-0.6-0.2-0.6-0.6c0-0.4,0.1-0.8,0.1-1.2
		c0-0.3,0.3-0.4,0.6-0.4c0.3,0,0.5,0.2,0.5,0.5C146.2,43,146.2,43.2,146.2,43.4C146.2,43.4,146.2,43.4,146.2,43.4z"/>
	<path class="st16" d="M52.6,43c0,0.2,0,0.4,0,0.6c-0.1,0.3-0.2,0.5-0.5,0.5c-0.3,0-0.5-0.1-0.5-0.4c-0.1-0.4-0.1-0.9-0.1-1.3
		c0-0.3,0.2-0.5,0.5-0.5c0.3,0,0.6,0.1,0.6,0.5C52.6,42.5,52.6,42.7,52.6,43C52.6,43,52.6,43,52.6,43z"/>
	<path class="st15" d="M103.8,33.2c0,0.2,0,0.4,0,0.5c0,0.4-0.3,0.6-0.6,0.6c-0.3,0-0.5-0.2-0.5-0.6c0-0.3,0-0.7,0-1
		c0-0.4,0.3-0.6,0.6-0.5c0.3,0,0.5,0.2,0.6,0.6C103.8,32.9,103.8,33.1,103.8,33.2z"/>
	<path class="st15" d="M117.7,33.4c0-0.2,0-0.4,0-0.6c0.1-0.3,0.3-0.5,0.6-0.5c0.3,0,0.5,0.2,0.5,0.5c0,0.4,0,0.7,0,1.1
		c0,0.4-0.2,0.5-0.6,0.5c-0.4,0-0.6-0.2-0.6-0.6C117.6,33.7,117.7,33.6,117.7,33.4C117.7,33.4,117.7,33.4,117.7,33.4z"/>
	<path class="st7" d="M133.5,42.4c0,0.2,0,0.5,0,0.7c-0.1,0.3-0.3,0.5-0.6,0.4c-0.3,0-0.5-0.2-0.5-0.5c0-0.4,0-0.8,0.1-1.2
		c0-0.3,0.3-0.4,0.6-0.4c0.3,0,0.5,0.2,0.5,0.5C133.6,42,133.5,42.2,133.5,42.4z"/>
	<path class="st5" d="M68.1,43c0,0.2,0,0.4-0.1,0.6C68,43.8,67.9,44,67.6,44c-0.3,0-0.5-0.1-0.5-0.3C67,43.2,67,42.8,67,42.4
		c0-0.3,0.3-0.5,0.5-0.5c0.3,0,0.5,0.2,0.6,0.5c0,0,0,0.1,0,0.1C68.1,42.6,68.1,42.8,68.1,43C68.1,43,68.1,43,68.1,43z"/>
	<path class="st8" d="M139.9,14.8c0.4,0.1,0.9,0.3,1.2,0.7c0.2,0.2,0.1,0.5,0,0.7c-0.2,0.2-0.4,0.3-0.6,0.2c-0.4-0.2-0.7-0.4-1-0.7
		c-0.1-0.1-0.2-0.4-0.1-0.6C139.3,14.9,139.5,14.8,139.9,14.8z"/>
	<path class="st16" d="M29.6,60.5c0.4,0.2,0.8,0.4,1.2,0.7c0.2,0.2,0.2,0.4,0.1,0.6c-0.1,0.2-0.4,0.3-0.6,0.2
		c-0.4-0.2-0.7-0.3-1.1-0.5c-0.2-0.1-0.3-0.4-0.2-0.6C29.1,60.7,29.3,60.5,29.6,60.5z"/>
	<path class="st13" d="M136,14.1c-0.3-0.1-0.7-0.3-1.1-0.5c-0.2-0.1-0.3-0.4-0.1-0.6c0.1-0.1,0.3-0.3,0.5-0.3
		c0.4,0.1,0.9,0.3,1.3,0.4c0.2,0.1,0.2,0.3,0.1,0.6C136.5,14.1,136.4,14.1,136,14.1z"/>
	<path class="st15" d="M132.6,37.4c0-0.2,0-0.4,0-0.6c0-0.2,0.2-0.4,0.4-0.4c0.2,0,0.4,0.2,0.4,0.3c0.1,0.4,0.1,0.9,0,1.3
		c0,0.2-0.2,0.4-0.5,0.3c-0.3,0-0.4-0.2-0.4-0.4C132.6,37.8,132.6,37.6,132.6,37.4C132.6,37.4,132.6,37.4,132.6,37.4z"/>
	<path class="st5" d="M34.2,62.7c0.3,0.1,0.7,0.2,1,0.4c0.2,0.1,0.3,0.3,0.2,0.6c-0.1,0.3-0.3,0.4-0.6,0.3c-0.4-0.1-0.8-0.2-1.1-0.4
		c-0.2-0.1-0.3-0.3-0.2-0.5C33.6,62.8,33.8,62.7,34.2,62.7z"/>
	<path class="st13" d="M131.2,12.6c-0.3-0.1-0.7-0.2-1-0.3c-0.1-0.1-0.2-0.3-0.2-0.5c0-0.2,0.2-0.4,0.5-0.4c0.4,0.1,0.8,0.1,1.2,0.2
		c0.3,0.1,0.3,0.3,0.3,0.6C131.8,12.5,131.6,12.6,131.2,12.6z"/>
	<path class="st16" d="M36.4,35.4c0,0.2,0,0.4,0,0.6c0,0.3-0.2,0.4-0.5,0.4c-0.3,0-0.5-0.2-0.5-0.4c0-0.4,0-0.8,0-1.2
		c0-0.3,0.2-0.4,0.5-0.4c0.3,0,0.5,0.1,0.5,0.5C36.4,35,36.4,35.2,36.4,35.4C36.4,35.4,36.4,35.4,36.4,35.4z"/>
	<path class="st16" d="M23,38.2c0-0.1,0-0.3,0-0.4c0-0.2,0.1-0.4,0.4-0.4c0.2,0,0.5,0.1,0.6,0.3c0,0.4,0,0.9,0,1.3
		c0,0.2-0.2,0.3-0.4,0.3c-0.2,0-0.4-0.1-0.4-0.3C23,38.7,23,38.4,23,38.2C23,38.2,23,38.2,23,38.2z"/>
	<path class="st13" d="M39.6,65.3c-0.2-0.1-0.6-0.1-0.9-0.2c-0.3-0.1-0.4-0.3-0.3-0.5c0.1-0.3,0.3-0.4,0.5-0.4
		c0.3,0,0.6,0.1,0.9,0.2c0.3,0.1,0.5,0.3,0.4,0.5C40.2,65.2,40,65.3,39.6,65.3z"/>
	<path class="st15" d="M146.3,38.4c0,0.2,0,0.3,0,0.5c0,0.3-0.2,0.4-0.5,0.4c-0.2,0-0.4-0.1-0.5-0.4c0-0.4,0-0.8,0.1-1.2
		c0-0.2,0.2-0.3,0.4-0.3c0.2,0,0.4,0.1,0.4,0.4C146.3,37.9,146.2,38.2,146.3,38.4C146.2,38.4,146.2,38.4,146.3,38.4z"/>
	<path class="st16" d="M53,48.3c0,0.1,0,0.3-0.1,0.3c-0.1,0.1-0.3,0.2-0.4,0.2c-0.1,0-0.3-0.2-0.3-0.3C52,48.2,52,47.8,52,47.5
		c0-0.3,0.1-0.5,0.4-0.5c0.3,0,0.5,0.1,0.5,0.4C52.9,47.7,52.9,48,53,48.3z"/>
	<path class="st15" d="M117.6,28.3c0-0.2,0-0.4,0-0.5c0.1-0.1,0.2-0.3,0.4-0.3c0.2-0.1,0.4,0.1,0.4,0.3c0.1,0.4,0.1,0.8,0.1,1.2
		c0,0.3-0.2,0.4-0.5,0.4c-0.3,0-0.4-0.2-0.4-0.4C117.6,28.7,117.6,28.5,117.6,28.3C117.6,28.3,117.6,28.3,117.6,28.3z"/>
	<path class="st16" d="M125.7,10.7c0.3,0,0.5,0,0.7,0.1c0.3,0.1,0.5,0.3,0.4,0.5c0,0.3-0.3,0.4-0.5,0.4c-0.3,0-0.6-0.1-0.9-0.1
		c-0.3-0.1-0.4-0.3-0.4-0.5c0-0.2,0.2-0.4,0.5-0.4C125.6,10.7,125.7,10.7,125.7,10.7z"/>
	<path class="st18" d="M36.5,40.5c0,0.2,0,0.3,0,0.5c0,0.2-0.2,0.4-0.4,0.4c-0.2,0-0.4-0.1-0.4-0.4c0-0.3-0.1-0.7-0.1-1
		c0-0.3,0.2-0.5,0.4-0.5c0.3,0,0.4,0.1,0.5,0.4C36.4,40.1,36.4,40.3,36.5,40.5C36.4,40.5,36.4,40.5,36.5,40.5z"/>
	<path class="st17" d="M44.2,65c0.2,0,0.4,0,0.7,0.1c0.2,0,0.3,0.2,0.3,0.4c0,0.2-0.2,0.4-0.4,0.4c-0.4,0-0.8-0.1-1.2-0.2
		c-0.2,0-0.3-0.3-0.2-0.5c0.1-0.1,0.2-0.3,0.4-0.3C43.8,65,44,65,44.2,65z"/>
	<path class="st15" d="M103.2,29.3c-0.2-0.3-0.4-0.4-0.4-0.6c-0.1-0.3,0-0.7,0-1c0-0.1,0.2-0.3,0.3-0.3c0.2-0.1,0.4,0.1,0.4,0.3
		c0,0.3,0.1,0.7,0,1C103.6,28.9,103.4,29,103.2,29.3z"/>
	<path class="st19" d="M133.4,32.4c0,0.2,0,0.3,0,0.5c0,0.2-0.2,0.4-0.4,0.4c-0.1,0-0.4-0.2-0.4-0.3c-0.1-0.4-0.1-0.8-0.1-1.2
		c0-0.2,0.2-0.3,0.4-0.3c0.2,0,0.3,0.1,0.4,0.3C133.4,32,133.4,32.2,133.4,32.4z"/>
	<path class="st17" d="M49.2,66.1c-0.1,0-0.3,0-0.4,0c-0.3,0-0.4-0.2-0.4-0.4c0-0.2,0.1-0.4,0.4-0.4c0.4,0,0.7,0,1.1,0
		c0.1,0,0.3,0.2,0.3,0.3c0,0.2-0.1,0.4-0.3,0.4C49.6,66.1,49.4,66.1,49.2,66.1C49.2,66.1,49.2,66.1,49.2,66.1z"/>
	<path class="st18" d="M68.3,48c0,0.3,0,0.4,0,0.5c-0.1,0.1-0.2,0.3-0.3,0.3c-0.1,0-0.3-0.1-0.4-0.2c-0.1-0.4-0.1-0.8-0.2-1.2
		c0-0.2,0.2-0.3,0.4-0.3c0.2,0,0.4,0.1,0.4,0.3C68.3,47.6,68.3,47.8,68.3,48z"/>
	<path class="st18" d="M24.3,43.5c0,0.1,0,0.3,0,0.3c-0.1,0.1-0.2,0.2-0.3,0.3c-0.1,0-0.3-0.1-0.3-0.2c-0.1-0.4-0.1-0.8-0.2-1.1
		c0-0.1,0.2-0.3,0.3-0.3c0.2-0.1,0.4,0,0.4,0.2C24.3,43,24.3,43.3,24.3,43.5z"/>
	<path class="st17" d="M54.4,64.9c0.2,0,0.3,0,0.3,0c0.1,0.1,0.3,0.2,0.3,0.3c0,0.1-0.1,0.3-0.2,0.3c-0.4,0.1-0.8,0.1-1.2,0.2
		c-0.1,0-0.3-0.2-0.3-0.3c0-0.1,0.1-0.3,0.2-0.3C53.9,65,54.2,65,54.4,64.9z"/>
	<path class="st16" d="M115.8,11.5c0,0-0.2,0-0.4,0c-0.1,0-0.3-0.2-0.3-0.3c0-0.1,0.1-0.3,0.2-0.3c0.4-0.1,0.7-0.1,1.1-0.1
		c0.1,0,0.3,0.2,0.3,0.3c0.1,0.2-0.1,0.3-0.3,0.4C116.3,11.5,116.1,11.5,115.8,11.5z"/>
	<path class="st18" d="M120.6,11.3c0,0-0.1,0-0.2,0c-0.2,0-0.4-0.2-0.3-0.4c0-0.2,0.1-0.4,0.3-0.4c0.2,0,0.4,0,0.6,0
		c0.3,0,0.5,0.2,0.4,0.5c0,0.2-0.2,0.4-0.4,0.4C120.9,11.3,120.8,11.3,120.6,11.3z"/>
	<path class="st18" d="M36.8,45.8c0,0.1,0,0.2,0,0.3c-0.1,0.1-0.2,0.2-0.3,0.2c-0.1,0-0.3-0.1-0.3-0.1c-0.1-0.4-0.1-0.8-0.2-1.2
		c0-0.1,0.2-0.2,0.3-0.2c0.1,0,0.3,0.1,0.3,0.2C36.8,45.2,36.8,45.5,36.8,45.8z"/>
	<path class="st19" d="M146,33.5c0,0.2,0,0.3,0,0.3c-0.1,0.1-0.2,0.3-0.3,0.3c-0.1,0-0.3-0.1-0.3-0.2c-0.1-0.4-0.1-0.8,0-1.2
		c0-0.1,0.2-0.2,0.3-0.2c0.1,0,0.3,0.1,0.3,0.2C146,33,146,33.3,146,33.5z"/>
	<path class="st18" d="M110.5,12.2c-0.1-0.1-0.3-0.2-0.3-0.3c-0.1-0.2,0.1-0.3,0.3-0.4c0.3-0.1,0.6-0.1,0.9-0.2
		c0.1,0,0.3,0.1,0.4,0.2c0.1,0.2-0.1,0.3-0.2,0.4C111.2,12.1,110.9,12.1,110.5,12.2z"/>
	<path class="st19" d="M59.6,63.8c0.1,0.1,0.3,0.2,0.3,0.3c0,0.1-0.1,0.3-0.2,0.4c-0.3,0.1-0.7,0.2-1,0.3c-0.1,0-0.3-0.1-0.3-0.2
		c0-0.1,0.1-0.3,0.2-0.3C58.9,64.1,59.2,64,59.6,63.8z"/>
	<path class="st19" d="M118,23.6c0,0.3,0,0.5-0.3,0.5c-0.2,0-0.3-0.1-0.3-0.3c0-0.3-0.1-0.6-0.1-0.9c0-0.2,0.1-0.3,0.2-0.3
		c0.1,0,0.3,0.1,0.3,0.2C117.9,23.1,118,23.4,118,23.6z"/>
	<path class="st19" d="M132.3,27.2c0-0.2,0-0.3,0-0.4c0-0.2,0.1-0.3,0.3-0.3c0.1,0,0.3,0.2,0.3,0.3c0.1,0.3,0.1,0.6,0.1,0.9
		c0,0.2-0.1,0.4-0.3,0.3c-0.1,0-0.3-0.2-0.3-0.3C132.3,27.6,132.3,27.4,132.3,27.2z"/>
	<path class="st18" d="M53.6,53.4c-0.1,0.1-0.1,0.3-0.2,0.3c-0.1,0-0.3-0.1-0.3-0.2c-0.1-0.3-0.2-0.6-0.2-1c0-0.2,0-0.3,0.3-0.4
		c0.2,0,0.3,0.1,0.4,0.3C53.5,52.7,53.6,53,53.6,53.4z"/>
	<path class="st19" d="M64.3,62.1c0.1,0.1,0.2,0.1,0.2,0.2c0,0.1,0,0.3,0,0.3c-0.3,0.2-0.7,0.3-1.1,0.5c-0.1,0-0.2-0.1-0.2-0.1
		c0-0.1,0-0.3,0-0.3C63.6,62.5,64,62.3,64.3,62.1z"/>
	<path class="st18" d="M101.1,15.5c-0.1-0.1-0.2-0.1-0.2-0.2c0-0.1,0-0.2,0-0.2c0.3-0.2,0.7-0.4,1-0.5c0.1,0,0.2,0,0.2,0.1
		c0,0.1,0,0.2,0,0.3C101.8,15.1,101.5,15.3,101.1,15.5z"/>
	<path class="st18" d="M106.5,12.6c0.1,0.2,0.1,0.3,0.2,0.5c-0.3,0.1-0.6,0.2-0.9,0.3c-0.2,0-0.3,0-0.4-0.2c0-0.1,0.1-0.3,0.2-0.3
		C105.9,12.8,106.2,12.7,106.5,12.6z"/>
	<path class="st19" d="M68.7,59.8c0.1,0.1,0.2,0.1,0.2,0.2c0,0.1,0,0.2,0,0.3c-0.3,0.2-0.6,0.4-0.9,0.6c-0.1,0-0.2,0-0.3-0.1
		c0-0.1-0.1-0.2,0-0.3C68,60.2,68.3,60,68.7,59.8z"/>
	<path class="st18" d="M25,48.7c0,0.1-0.1,0.2-0.2,0.2c-0.1,0-0.2-0.1-0.3-0.2c-0.1-0.3-0.2-0.6-0.2-0.9c0-0.1,0.1-0.2,0.2-0.3
		c0.1,0.1,0.2,0.1,0.3,0.2C24.9,48.1,25,48.4,25,48.7z"/>
	<path class="st18" d="M37.5,50.9c0,0.1-0.1,0.1-0.2,0.2c-0.1-0.1-0.2-0.1-0.2-0.2c-0.1-0.3-0.1-0.6-0.2-0.9c0-0.1,0.1-0.2,0.2-0.3
		c0.1,0.1,0.2,0.1,0.3,0.2C37.4,50.2,37.4,50.5,37.5,50.9z"/>
	<path class="st18" d="M96.9,18.2c0-0.1-0.1-0.3-0.1-0.3c0.3-0.3,0.6-0.5,0.9-0.7c0,0,0.2,0,0.2,0.1c0,0,0.1,0.2,0,0.2
		c-0.3,0.2-0.6,0.5-0.8,0.7C97,18.2,97,18.2,96.9,18.2z"/>
	<path class="st18" d="M68.8,53.7c-0.2-0.1-0.4-0.1-0.4-0.2c-0.1-0.3-0.1-0.6-0.2-1c0-0.1,0.1-0.2,0.2-0.3c0.1,0.1,0.2,0.1,0.2,0.2
		C68.8,52.8,68.8,53.2,68.8,53.7z"/>
	<path class="st19" d="M102.6,22.4c0.2,0.1,0.4,0.1,0.4,0.2c0.1,0.3,0.1,0.7,0.1,1c0,0.1-0.1,0.2-0.2,0.2c-0.1-0.1-0.2-0.1-0.2-0.2
		C102.6,23.3,102.6,22.9,102.6,22.4z"/>
	<path class="st19" d="M71.9,57.9c0-0.1-0.1-0.3,0-0.3c0.3-0.2,0.5-0.5,0.8-0.7c0,0,0.2,0,0.2,0c0,0,0.1,0.2,0,0.2
		c-0.3,0.3-0.6,0.5-0.9,0.7C72,57.9,72,57.9,71.9,57.9z"/>
	<path class="st19" d="M145,27.6c0.1,0.1,0.2,0.2,0.2,0.2c0.1,0.3,0.1,0.6,0.2,0.9c0,0.1-0.1,0.2-0.2,0.3c-0.1-0.1-0.2-0.1-0.2-0.2
		C144.9,28.4,144.8,28.1,145,27.6z"/>
	<path class="st19" d="M131.8,21.7c0.2,0.1,0.3,0.1,0.4,0.1c0.1,0.3,0.1,0.7,0.2,1c0,0.1-0.1,0.2-0.2,0.2c-0.1,0-0.2-0.1-0.2-0.1
		C131.9,22.5,131.8,22.1,131.8,21.7z"/>
	<path class="st18" d="M93.1,21.6c0.3-0.4,0.5-0.8,1-1C94.1,21.1,93.6,21.6,93.1,21.6z"/>
	<path class="st19" d="M116.9,19.1c-0.2-0.5-0.3-0.9-0.2-1.4C117,18.1,117.1,18.7,116.9,19.1z"/>
	<path class="st19" d="M75.5,54.4c0-0.1-0.1-0.2-0.1-0.2c0.2-0.3,0.5-0.6,0.9-0.9C76.4,53.7,76.1,54.1,75.5,54.4z"/>
	<path class="st18" d="M90.3,25.6c0-0.4,0.3-0.9,0.7-1C90.9,25,90.7,25.4,90.3,25.6z"/>
	<path class="st18" d="M54.4,58.4c-0.3-0.5-0.4-0.8-0.3-1.3c0.1,0.1,0.3,0.2,0.3,0.3C54.4,57.7,54.7,58,54.4,58.4z"/>
	<path class="st18" d="M38.1,54.8c0.2,0.3,0.3,0.7,0.3,1.1C38.1,55.6,38,55.2,38.1,54.8z"/>
	<path class="st19" d="M79.4,49.4c-0.1,0.5-0.4,0.8-0.7,1.1C78.7,50.1,78.9,49.7,79.4,49.4z"/>
	<path class="st18" d="M131.3,18c-0.1-0.4-0.1-0.7-0.2-1.2c0.3,0.3,0.4,0.7,0.4,1.2C131.3,18,131.3,18,131.3,18z"/>
	<path class="st18" d="M26,53.7c-0.3-0.3-0.4-0.7-0.3-1.2C26,52.9,25.9,53.3,26,53.7z"/>
	<path class="st18" d="M87.9,29.9c0.2-0.3,0.3-0.7,0.5-1c0.1,0.5-0.2,0.7-0.3,1.1C88,30,87.9,29.9,87.9,29.9z"/>
	<path class="st19" d="M81.9,45.2c-0.2,0.3-0.3,0.7-0.5,1c0,0-0.1,0-0.1-0.1c0-0.4,0.3-0.7,0.5-1C81.8,45.1,81.9,45.1,81.9,45.2z"/>
	<path class="st2" d="M86.3,33.6c0.1,0.4-0.1,0.7-0.3,1C85.9,34.2,86.1,33.9,86.3,33.6z"/>
	<path class="st18" d="M144.2,23.9c-0.1-0.3-0.1-0.6-0.2-0.9c0,0,0.1,0,0.1,0c0.1,0.3,0.1,0.6,0.2,0.9
		C144.3,23.8,144.3,23.8,144.2,23.9z"/>
	<path class="st2" d="M83.9,40.6c0,0.4,0,0.6-0.3,0.9C83.5,41.1,83.5,41,83.9,40.6z"/>
	<path class="st2" d="M69.4,58.2c0-0.2-0.1-0.5-0.1-0.7c0,0,0.1,0,0.1,0c0.1,0.2,0.1,0.5,0.2,0.7C69.5,58.1,69.5,58.1,69.4,58.2z"/>
	<path class="st2" d="M102.3,18.7c-0.2-0.2-0.2-0.2-0.1-0.5C102.2,18.3,102.2,18.5,102.3,18.7z"/>
	<path class="st20" d="M115.1,64.3c-0.1,0-0.1,0.1-0.2,0.1C115,64.4,115.1,64.4,115.1,64.3z"/>
	<path class="st20" d="M27,17c0.3,0,0.4,0.2,0.5,0.4C27.2,17.4,27.1,17.2,27,17z"/>
</g>
</svg>
